<svg xmlns="http://www.w3.org/2000/svg" width="248.1892" height="79.9224" viewBox="0 0 248.1892 79.9224"><path d="M12.6719,31.7148l-1.0781-.526h0l-1.57-.766a.0215.0215,0,0,1-.01-.0285.0213.0213,0,0,1,.0193-.0125A5.5983,5.5983,0,0,0,14.961,27.3a27.4441,27.4441,0,0,1,43.2159-7.9312C51.67,32.9039,47.9437,39.8611,42.8162,41.6671c-5.4186,1.908-13.146-1.667-28.0909-8.95Q13.7213,32.2263,12.6719,31.7148ZM30.1474,66.1857A5.1729,5.1729,0,0,1,33.53,70.6538a.0216.0216,0,0,0,.0415.007c4.1325-9.1562,5.8731-14.72,4.4265-18.9115-1.885-5.4611-9.4382-9.3482-24.3207-16.6134l-1.198-.584A27.92,27.92,0,0,0,30.1474,66.1857Zm2.3009,6.93A33.8575,33.8575,0,0,1,5.9811,39.962q0-1.0725.0653-2.127a4.5889,4.5889,0,0,1,4.24-4.3091.0212.0212,0,0,0,.0206-.0219.0215.0215,0,0,0-.0127-.0191L1.4684,29.18a40.0568,40.0568,0,0,0,27.5,49.2876q.4242.12.8508.23,1.4168-2.979,2.63-5.5811ZM7.686,29.2828A33.4329,33.4329,0,0,1,55.5245,10.1a7.3672,7.3672,0,0,1,3.8077,6.7691.021.021,0,0,0,.0184.0232.0206.0206,0,0,0,.0212-.0122q.4545-.9525.9277-1.941L60.82,13.85h0L63.536,8.17a39.3067,39.3067,0,0,0-55.45,7.5862A40.0922,40.0922,0,0,0,2.2644,26.6377Z"/><path d="M79.9272,39.962a39.7738,39.7738,0,0,1-6.0931,21.2146c-3.1-1.516-5.8341-2.8851-8.2071-4.1581a.0206.0206,0,0,1,.01-.039,6.4685,6.4685,0,0,0,5.663-3.98,33.95,33.95,0,0,0-7.764-37.4359l2.741-5.6751A39.8629,39.8629,0,0,1,79.9272,39.962ZM57.8209,61.4026a8.7069,8.7069,0,0,1,5.6011-2.008.0222.0222,0,0,0,.008-.043c-6.8771-2.8981-11.4152-3.9721-14.9682-2.7341-3.506,1.223-6.3651,4.81-9.8841,11.1963A27.9332,27.9332,0,0,0,57.8209,61.4026Zm8.9271-.598A34.2531,34.2531,0,0,1,41.7917,73.8609a4.2685,4.2685,0,0,1-4.4691-3.6241.0213.0213,0,0,0-.04-.008c-1.368,2.6151-2.851,5.6251-4.51,9.0452A40.0154,40.0154,0,0,0,72.3281,63.4046q-2.9985-1.4265-5.58-2.6ZM63.635,25.1977a10.3542,10.3542,0,0,1-1.491-6.75c-7.1891,14.9064-10.7091,22.6516-8.8131,28.0887,1.126,3.23,4.256,5.9092,9.7331,9.0612a27.87,27.87,0,0,0,.571-30.4Z"/><path d="M131.6472,21.14h-7.576l-.927,9.095h-3.191l-.103,1.026c-.165,1.655-.451,4.516-.554,5.515l-.021.202h3.185c-.078.898-.278,2.773-.507,4.919-.512,4.809-1.214,11.397-1.175,12.871.039,3.283,1.428,5.683,3.911,6.758a7.6391,7.6391,0,0,0,3.034.599,9.6744,9.6744,0,0,0,6.654-2.727l.088-.086-2.177-5.488-.174.098a2.1328,2.1328,0,0,1-2.271.125c-.751-.494-1.11-1.596-1.011-3.101.209-3.169.57-6.373.92-9.471.169-1.498.338-2.997.491-4.496l5.686-.018.017-.164c.16-1.582.479-4.76.637-6.361l.02-.201h-5.857l.901-9.095"/><path d="M215.2352,36.58a30.0177,30.0177,0,0,0-3.612-.229,16.6646,16.6646,0,0,0-6.751,1.357,17.0132,17.0132,0,0,0-5.296,3.645,16.2984,16.2984,0,0,0-3.465,5.345,16.8876,16.8876,0,0,0-1.259,6.456,12.247,12.247,0,0,0,.588,4.037,8.4735,8.4735,0,0,0,1.553,2.828,6.1936,6.1936,0,0,0,2.272,1.667c.1311.065.261.114.392.164a6.43,6.43,0,0,0,2.158.392.21.21,0,0,0,.098.016,8.0612,8.0612,0,0,0,4.217-1.243,11.965,11.965,0,0,0,2.795-2.5339l-.376,3.383h7.388l3.024-24.224.016-.147-.131-.0491A19.2344,19.2344,0,0,0,215.2352,36.58Zm-11.834,15.087a13.2562,13.2562,0,0,1,.572-3.939,10.7736,10.7736,0,0,1,1.651-3.236,7.9092,7.9092,0,0,1,2.55-2.174,6.5747,6.5747,0,0,1,3.253-.801h.261l-.654,4.953a19.2449,19.2449,0,0,1-1.193,4.773,14.7819,14.7819,0,0,1-1.259,2.452,6.5245,6.5245,0,0,1-1.422,1.635,2.1051,2.1051,0,0,1-2.37.343,1.8776,1.8776,0,0,1-.703-.686,3.8427,3.8427,0,0,1-.49-1.308A8.9767,8.9767,0,0,1,203.4012,51.6672Z"/><path d="M239.5072,36.3532l-5.153,13.47c-.265.63-.514,1.226-.746,1.806l-.182.514c-.083.199-.166.414-.249.63-.033-.365-.083-.713-.132-1.06q-.1485-.894-.298-1.789l-2.154-12.063-.265-1.508h-9.08l6.561,27.239-6.561,13.206h8.765L247.46,37.96l.729-1.607Z"/><path d="M112.7962,31.1322l5.325-5.964c-3.998-4.12-11.068-5.056-16.186-2.878-9.347,3.402-12.194,19.069-1.207,22.269h0c2.83,1.119,7.467,1.78,6.962,5.779-1.024,6.598-8.325,4.41-11.922,1.293l-5.727,5.756-.114.132c10.801,10.78,30.537,1.911,26.09-13.75-1.477-3.969-5.694-5.384-9.3-6.743-2.799-.994-5.379-2.421-4.128-5.789C104.4492,26.8592,110.3232,28.4,112.7962,31.1322Z"/><path d="M173.24,36.4172H166.2l-3.224,25.627-.033.214h8.109l.016-.148c.23-1.086.362-2.55.526-4.244.477-4.902,1.118-11.596,4.375-13.636a4.8034,4.8034,0,0,1,4.013-.378c.23.066.461.148.691.23l.115.049.099-1.02.181-1.793.461-4.507.016-.181.016-.181a4.6216,4.6216,0,0,0-.806-.164c-3.306-.444-6.185,2.336-7.879,4.474l.049-.493Z"/><path d="M157.29,36.5992a27.1188,27.1188,0,0,0-3.623-.247,16.78,16.78,0,0,0-6.768,1.35,17.05,17.05,0,0,0-5.336,3.672,16.7872,16.7872,0,0,0-3.491,5.368,17.2492,17.2492,0,0,0-1.251,6.488,12.4811,12.4811,0,0,0,.593,4.068,8.1832,8.1832,0,0,0,1.564,2.832,6.434,6.434,0,0,0,2.273,1.68,6.5133,6.5133,0,0,0,2.668.56,7.5235,7.5235,0,0,0,2.454-.395,6.9489,6.9489,0,0,0,1.7781-.84,12.68,12.68,0,0,0,3.096-2.849l-.363,3.69h7.114l3.046-24.323.016-.132-.1481-.049A16.81,16.81,0,0,0,157.29,36.5992Zm-12.549,17.176a8.9064,8.9064,0,0,1-.198-2.042,13.2685,13.2685,0,0,1,.593-3.985,11.0717,11.0717,0,0,1,1.663-3.261,8.022,8.022,0,0,1,2.569-2.207,6.78,6.78,0,0,1,3.294-.807h.263l-.642,5.023a19.3859,19.3859,0,0,1-1.219,4.809,15.2571,15.2571,0,0,1-1.268,2.487,7.23,7.23,0,0,1-1.433,1.647,2.1569,2.1569,0,0,1-2.404.362,1.9831,1.9831,0,0,1-.725-.708A4.4058,4.4058,0,0,1,144.7412,53.7752Z"/><polygon points="182.955 62.06 182.938 62.257 190.317 62.257 194.507 21.223 194.524 21.026 187.145 21.026 182.955 62.06"/></svg>