<svg xmlns="http://www.w3.org/2000/svg" xmlns:xlink="http://www.w3.org/1999/xlink" width="90.1347" height="123.7237" viewBox="0 0 90.1347 123.7237"><defs><linearGradient id="a" x1="10.3191" y1="20.1302" x2="54.1318" y2="45.4254" gradientUnits="userSpaceOnUse"><stop offset="0" stop-color="#a40056"/><stop offset="0.2389" stop-color="#ae005c"/><stop offset="0.648" stop-color="#ca006b"/><stop offset="0.9944" stop-color="#e6007a"/></linearGradient><linearGradient id="b" x1="52.1702" y1="43.1618" x2="80.0704" y2="59.27" gradientUnits="userSpaceOnUse"><stop offset="0" stop-color="#0297fb"/><stop offset="0.2104" stop-color="#03a0fc"/><stop offset="0.5602" stop-color="#06bafd"/><stop offset="0.9944" stop-color="#0ae2ff"/></linearGradient></defs><path d="M17.7756,31.7148l-1.0781-.526h0l-1.57-.766a.0216.0216,0,0,1-.01-.0285.0213.0213,0,0,1,.0193-.0125A5.5983,5.5983,0,0,0,20.0647,27.3a27.4444,27.4444,0,0,1,43.216-7.9312C56.774,32.9039,53.0474,39.8611,47.92,41.6671c-5.4185,1.908-13.1459-1.667-28.0908-8.95Q18.8252,32.2263,17.7756,31.7148ZM35.2511,66.1857a5.1727,5.1727,0,0,1,3.3821,4.4681.0216.0216,0,0,0,.0416.007c4.1324-9.1562,5.873-14.72,4.4264-18.9115-1.885-5.4611-9.4382-9.3482-24.3207-16.6134l-1.198-.584A27.92,27.92,0,0,0,35.2511,66.1857Zm2.3009,6.93A33.8575,33.8575,0,0,1,11.0848,39.962q0-1.0725.0654-2.127a4.5887,4.5887,0,0,1,4.24-4.3091.0214.0214,0,0,0,.0079-.041L6.5722,29.18a40.0566,40.0566,0,0,0,27.5,49.2876q.4241.12.8507.23,1.4168-2.979,2.63-5.5811ZM12.79,29.2828A33.4331,33.4331,0,0,1,60.6283,10.1a7.3676,7.3676,0,0,1,3.8077,6.7691.0208.0208,0,0,0,.04.011q.4543-.9525.9276-1.941l.5208-1.089h0L68.64,8.17a39.3067,39.3067,0,0,0-55.45,7.5862A40.0922,40.0922,0,0,0,7.3681,26.6377Z" fill="url(#a)"/><path d="M85.0309,39.962a39.7738,39.7738,0,0,1-6.0931,21.2146c-3.1-1.516-5.8341-2.8851-8.2071-4.1581a.0207.0207,0,0,1-.009-.0278.02.02,0,0,1,.019-.0112,6.4686,6.4686,0,0,0,5.6631-3.98A33.95,33.95,0,0,0,68.64,15.5634l2.741-5.6751A39.8625,39.8625,0,0,1,85.0309,39.962ZM62.9246,61.4026a8.7069,8.7069,0,0,1,5.6011-2.008.0222.0222,0,0,0,.008-.043c-6.8771-2.8981-11.4152-3.9721-14.9682-2.7341-3.506,1.223-6.3651,4.81-9.8841,11.1963A27.9332,27.9332,0,0,0,62.9246,61.4026Zm8.9271-.598A34.2528,34.2528,0,0,1,46.8954,73.8609a4.2683,4.2683,0,0,1-4.469-3.6241.0213.0213,0,0,0-.0232-.0192.0209.0209,0,0,0-.0168.0112c-1.368,2.6151-2.851,5.6251-4.51,9.0452A40.0154,40.0154,0,0,0,77.4318,63.4046q-2.9985-1.4265-5.58-2.6Zm-3.113-35.6069a10.3542,10.3542,0,0,1-1.491-6.75c-7.1891,14.9064-10.7091,22.6516-8.8131,28.0887,1.126,3.23,4.2561,5.9092,9.7331,9.0612a27.87,27.87,0,0,0,.571-30.4Z" fill="url(#b)"/><path d="M23.7607,92.0249H19.446l-.528,5.18H17.1006l-.0586.5843c-.094.9426-.2569,2.572-.3155,3.1409l-.012.1151h1.814c-.0445.5114-.1584,1.5793-.2888,2.8015-.2916,2.7389-.6914,6.4909-.6692,7.33a3.9243,3.9243,0,0,0,2.2274,3.8489,4.3512,4.3512,0,0,0,1.728.3411,5.51,5.51,0,0,0,3.79-1.5531l.05-.049-1.24-3.1255-.0991.0558a1.2152,1.2152,0,0,1-1.2934.0712A1.88,1.88,0,0,1,22.1575,109c.119-1.8049.3246-3.63.524-5.394.0962-.8532.1925-1.7069.28-2.5606l3.2383-.01.01-.0934c.0911-.901.2728-2.711.3628-3.6228l.0114-.1144H23.2476l.5131-5.18"/><path d="M71.3664,100.8184a17.0848,17.0848,0,0,0-2.0571-.13,9.49,9.49,0,0,0-3.8449.7728,9.689,9.689,0,0,0-3.0162,2.076,9.28,9.28,0,0,0-1.9734,3.0441,9.6179,9.6179,0,0,0-.7171,3.6769,6.975,6.975,0,0,0,.3349,2.2992,4.8269,4.8269,0,0,0,.8845,1.6106,3.5281,3.5281,0,0,0,1.294.9494c.0746.037.1486.0649.2232.0934a3.6641,3.6641,0,0,0,1.2291.2232.12.12,0,0,0,.0558.0092,4.5924,4.5924,0,0,0,2.4017-.708,6.8118,6.8118,0,0,0,1.5918-1.4431l-.2141,1.9267h4.2076l1.7223-13.7963.0091-.0837-.0746-.0279A10.9509,10.9509,0,0,0,71.3664,100.8184Zm-6.74,8.5925a7.55,7.55,0,0,1,.3258-2.2434,6.1352,6.1352,0,0,1,.94-1.843,4.5034,4.5034,0,0,1,1.4523-1.2381,3.744,3.744,0,0,1,1.8526-.4562h.1487l-.3725,2.8208a10.96,10.96,0,0,1-.6794,2.7184,8.4209,8.4209,0,0,1-.7171,1.3965,3.7135,3.7135,0,0,1-.81.9312,1.1993,1.1993,0,0,1-1.35.1953,1.07,1.07,0,0,1-.4-.3907,2.1885,2.1885,0,0,1-.279-.7449A5.1127,5.1127,0,0,1,64.6266,109.4109Z"/><path d="M85.19,100.6891l-2.9348,7.6716c-.1509.3588-.2927.6982-.4248,1.0285l-.1037.2928c-.0473.1133-.0945.2358-.1418.3588-.0188-.2079-.0473-.4061-.0752-.6037q-.0846-.5092-.17-1.0189l-1.2268-6.87-.1509-.8589H74.791l3.7367,15.5134-3.7367,7.5212h4.9919L89.72,101.6044l.4152-.9153Z"/><path d="M13.0245,97.7156l3.0328-3.3966A8.7039,8.7039,0,0,0,6.8389,92.68c-5.3234,1.9375-6.9448,10.86-.6874,12.6828h0c1.6117.6373,4.2526,1.0137,3.965,3.2913-.5832,3.7577-4.7413,2.5116-6.79.7364L.0649,112.6686,0,112.7438c6.1515,6.14,17.3917,1.0883,14.859-7.8311-.8412-2.26-3.2429-3.0663-5.2966-3.84-1.5941-.5661-3.0635-1.3788-2.351-3.297C8.2707,95.282,11.6161,96.16,13.0245,97.7156Z"/><path d="M47.4491,100.7256H43.44l-1.8361,14.5953-.0188.1219H46.203l.0091-.0843c.131-.6185.2061-1.4523.3-2.4171.2716-2.7918.6367-6.6043,2.4916-7.7661a2.7359,2.7359,0,0,1,2.2856-.2153c.131.0376.2625.0843.3935.131l.0655.0279.0564-.5809.1031-1.0212L52.17,100.95l.0091-.1031.0091-.1031a2.63,2.63,0,0,0-.459-.0934c-1.8829-.2529-3.5225,1.33-4.4873,2.5481l.0279-.2808Z"/><path d="M38.3651,100.8292a15.4455,15.4455,0,0,0-2.0634-.1406,9.5556,9.5556,0,0,0-3.8545.7688,9.7085,9.7085,0,0,0-3.039,2.0913A9.5593,9.5593,0,0,0,27.42,106.606a9.8238,9.8238,0,0,0-.7125,3.6951,7.1088,7.1088,0,0,0,.3378,2.3168,4.66,4.66,0,0,0,.8907,1.6129,3.665,3.665,0,0,0,1.2946.9568,3.7086,3.7086,0,0,0,1.52.3189,4.2869,4.2869,0,0,0,1.3976-.2249,3.96,3.96,0,0,0,1.0126-.4784,7.2218,7.2218,0,0,0,1.7633-1.6226l-.2068,2.1016h4.0517L40.5032,101.43l.0091-.0752-.0843-.0279A9.5733,9.5733,0,0,0,38.3651,100.8292Zm-7.147,9.7822a5.0714,5.0714,0,0,1-.1127-1.1629,7.5522,7.5522,0,0,1,.3377-2.27,6.303,6.303,0,0,1,.9471-1.8572,4.5683,4.5683,0,0,1,1.4631-1.257,3.8621,3.8621,0,0,1,1.876-.46h.15l-.3656,2.8608a11.04,11.04,0,0,1-.6943,2.7388,8.6879,8.6879,0,0,1-.7221,1.4164,4.1176,4.1176,0,0,1-.8162.938,1.2284,1.2284,0,0,1-1.3691.2062,1.13,1.13,0,0,1-.4129-.4032A2.51,2.51,0,0,1,31.2181,110.6114Z"/><polygon points="52.982 115.33 52.972 115.442 57.175 115.442 59.561 92.072 59.571 91.96 55.368 91.96 52.982 115.33"/></svg>