<?xml version="1.0" encoding="utf-8"?>
<!-- Generator: Adobe Illustrator 25.4.1, SVG Export Plug-In . SVG Version: 6.00 Build 0)  -->
<!DOCTYPE svg PUBLIC "-//W3C//DTD SVG 1.1//EN" "http://www.w3.org/Graphics/SVG/1.1/DTD/svg11.dtd" [
	<!ENTITY st0 "fill:url(#SVGID_1_);">
	<!ENTITY st1 "fill:url(#SVGID_00000075155260295469823940000017835658420914239139_);">
	<!ENTITY st2 "fill:#FFFFFF;">
	<!ENTITY st3 "fill:url(#SVGID_00000116922434640167666180000013718711089906947484_);">
	<!ENTITY st4 "fill:url(#SVGID_00000103943823357792634520000000585925678820269714_);">
	<!ENTITY st5 "fill:url(#SVGID_00000177477934976484162080000014430117038618725306_);">
	<!ENTITY st6 "fill:url(#SVGID_00000098900266437389422170000002529225492590004632_);">
]>
<svg version="1.1" id="レイヤー_1" xmlns="http://www.w3.org/2000/svg" xmlns:xlink="http://www.w3.org/1999/xlink" x="0px"
	 y="0px" viewBox="0 0 110.4891281 144.9237213" style="enable-background:new 0 0 110.4891281 144.9237213;" xml:space="preserve">
<g>
	<g>
		<g>
			<path d="M28.0722046,42.1319046l-1.0893211-0.5261917l0,0l-1.5864697-0.7662735
				c-0.0107765-0.0049973-0.0154552-0.0177879-0.0104485-0.0285645c0.0035191-0.0075722,0.0111046-0.0124283,0.019453-0.0124512
				c2.1037292-0.0226822,4.0214233-1.2100487,4.9795475-3.0831795c6.9813251-13.724741,23.7662258-19.1910095,37.4901276-12.209259
				c2.2411804,1.1401443,4.3178024,2.5782585,6.1734085,4.2752171
				c-6.5740356,13.5401974-10.3392105,20.4998608-15.5197983,22.3065624
				c-5.4746971,1.90868-13.2821198-1.6675987-28.3817978-8.9534416
				C29.4706612,42.8071785,28.7790947,42.4730377,28.0722046,42.1319046z M45.7286873,76.6151123
				c1.9190445,0.6879807,3.2564011,2.4373169,3.4170647,4.4697113c0.0008545,0.0120697,0.0113258,0.0211639,0.0233994,0.0203094
				c0.0082092-0.0005875,0.0153999-0.005722,0.0186195-0.013298c4.1752396-9.1595154,5.9338341-14.7256393,4.4723244-18.918251
				c-1.9045753-5.4630852-9.5359497-9.3515778-24.5726185-16.6193657l-1.2103672-0.5842094
				c-2.6803093,13.5096931,4.9032059,26.9528732,17.851532,31.6451263L45.7286873,76.6151123z M48.0533867,83.5477829
				c-15.6049271-3.3884125-26.73806-17.196228-26.7412796-33.1657066c0.0000076-0.7152634,0.0220013-1.4245224,0.066021-2.1277618
				c0.1459484-2.3076515,1.977747-4.1507034,4.2843323-4.3106575c0.0118141-0.0002899,0.0211563-0.0101051,0.0208664-0.0219116
				c-0.000206-0.0083351-0.0052204-0.0157852-0.0128593-0.019104l-8.9177551-4.3066521
				c-5.942029,21.2881622,6.4974251,43.3628883,27.7842903,49.3052711c0.2856712,0.0797501,0.5722084,0.1563187,0.8595695,0.2296906
				c0.9542961-1.9867706,1.83992-3.8478317,2.6568298-5.583168H48.0533867z M23.0346489,39.6989708
				c5.9061012-17.7963428,25.1198387-27.4349976,42.9150963-21.5285416
				c1.8707809,0.6209316,3.6839142,1.4036179,5.4188843,2.3391857c2.4700623,1.3374252,3.9628296,3.964941,3.8471375,6.7715969
				c-0.0012817,0.0115318,0.007019,0.0219193,0.0185547,0.023201c0.0090408,0.0010033,0.0176926-0.0039196,0.0214462-0.0121956
				c0.3060913-0.6352501,0.618515-1.2824802,0.9372787-1.9416943l0.5261536-1.0893917l0,0l2.7438126-5.6821766
				C61.8967514,5.2028618,36.8136673,8.6005325,23.4383793,26.1678696
				c-2.5134125,3.3011684-4.4976521,6.9734993-5.8814564,10.8850975L23.0346489,39.6989708z"/>
			<path d="M95.2200241,50.3820763c0.0111084,7.5074272-2.1018982,14.8648033-6.0948944,21.2221336
				c-3.1009293-1.5165405-5.8358154-2.8861084-8.209549-4.159584c-0.0101547-0.0051804-0.0141983-0.017601-0.0090179-0.0277634
				c0.0036316-0.0071106,0.0110321-0.0114975,0.0190125-0.0112534c2.4992065-0.1202011,4.7051239-1.6706467,5.6647568-3.9815369
				c5.3537979-12.892971,2.2728806-27.7490501-7.7663956-37.4493599l2.7418137-5.6771736
				C90.252449,27.8798256,95.2320023,38.8512955,95.2200241,50.3820763z M73.1071625,71.830307
				c1.573761-1.3067932,3.5572281-2.0179138,5.6027451-2.008728c0.0122528,0.0001297,0.022316-0.009697,0.022438-0.021965
				c0.0001068-0.0093613-0.0056839-0.0177765-0.0144424-0.0210495c-6.8791199-2.8991165-11.418541-3.9735184-14.972641-2.7350464
				c-3.5070381,1.2234344-6.3669586,4.8118439-9.8870659,11.2002945
				C60.8514137,78.5934677,67.7210236,76.3046036,73.1071625,71.830307z M82.0369339,71.2320862
				c-6.0636673,7.7319489-15.1547775,12.4884033-24.9637451,13.0610123c-2.203064,0.128479-4.1410332-1.4431686-4.4703865-3.6253891
				c-0.0010681-0.0117035-0.0114136-0.0203247-0.0231056-0.0192642c-0.0071754,0.0006485-0.0135384,0.0048828-0.0168991,0.0112534
				c-1.3684006,2.6159973-2.8518448,5.6271591-4.5113983,9.0484619
				c15.1442337,2.7571182,30.5277023-3.4150009,39.5672684-15.8750839c-1.9996185-0.9513779-3.860199-1.8183823-5.5817337-2.6010208
				V71.2320862z M78.9229965,35.6124306c-1.2559891-2.0135307-1.7824936-4.3973179-1.4914398-6.7525902
				c-7.1912231,14.9117126-10.712326,22.659687-8.8157349,28.0987701c1.1263428,3.2312469,4.2573242,5.9112701,9.7360229,9.0644836
				c6.1895981-9.1311951,6.4135132-21.0534592,0.571167-30.410656L78.9229965,35.6124306z"/>
		</g>
	</g>
</g>
<g>
	<path d="M33.9378204,100.2953262h-4.3147736l-0.527956,5.1798859h-1.8173714l-0.0586605,0.584343
		c-0.0939693,0.9425735-0.2568607,2.5720062-0.3155212,3.1409683l-0.0119572,0.1150436h1.8139553
		c-0.0444241,0.5114441-0.158329,1.5793152-0.2887535,2.8015213c-0.2915974,2.7388763-0.6914139,6.4909592-0.6692009,7.3304443
		c0.0222111,1.8697739,0.8132858,3.2366486,2.2274342,3.8488998c0.546711,0.2303009,1.1347351,0.3463974,1.7279568,0.3411484
		c1.4158516-0.0115585,2.7729187-0.5677261,3.7896652-1.5531158l0.0501175-0.0489807l-1.2398682-3.1255875l-0.0990982,0.0558167
		c-0.3814735,0.2707596-0.8845139,0.2984467-1.2934036,0.0711899c-0.4277229-0.2813492-0.6321793-0.9089737-0.575798-1.7661133
		c0.1190338-1.8048477,0.3246384-3.6296234,0.5239677-5.3940353c0.0962563-0.853157,0.1925011-1.7068863,0.2796402-2.5606155
		l3.2383575-0.0102463l0.0096817-0.0934067c0.0911255-0.901001,0.2728081-2.710968,0.3627892-3.6227875l0.0113907-0.1144791
		h-3.335743l0.5131493-5.1798859"/>
	<path d="M81.5438156,109.0888901c-0.6824722-0.0848236-1.3694229-0.1283798-2.0571442-0.1304169
		c-1.3214722-0.0129013-2.6310577,0.2503357-3.8449097,0.7728577c-1.1282196,0.493988-2.1519089,1.1985474-3.0162354,2.0759354
		c-0.8516541,0.8750229-1.5222702,1.9095001-1.9734268,3.0441513c-0.4777069,1.1667786-0.7213287,2.4161072-0.717041,3.6768951
		c-0.0176926,0.7797318,0.0955124,1.5569077,0.3348923,2.2991943c0.1889496,0.5885773,0.4892197,1.1353607,0.884491,1.6106415
		c0.3526535,0.4116745,0.7954407,0.7365494,1.2939758,0.9494095c0.0746155,0.0370178,0.1486359,0.0649261,0.2232513,0.093399
		c0.3938828,0.1442184,0.8096161,0.2197342,1.2290497,0.223259c0.017601,0.007431,0.0367432,0.0105591,0.055809,0.0091095
		c0.8507004-0.0089264,1.6821899-0.2540207,2.4017181-0.7079239c0.6035995-0.3938522,1.1408844-0.8809738,1.5918503-1.4431915
		l-0.2141495,1.9267273h4.207695l1.7222595-13.7963333l0.0091095-0.0837173l-0.0746155-0.0279083
		C82.9323502,109.3509827,82.2436218,109.1861877,81.5438156,109.0888901z M74.8039932,117.6814194
		c-0.0049515-0.7599335,0.1048737-1.5162506,0.3257675-2.2433853c0.2068253-0.6631393,0.5247726-1.2863388,0.9402924-1.8430099
		c0.3901138-0.5117188,0.8853226-0.9339142,1.452301-1.2381592c0.5678101-0.3095093,1.2060852-0.4666748,1.852684-0.4561996
		h0.1486359l-0.372467,2.8208923c-0.1092529,0.9314575-0.3376007,1.845047-0.679451,2.7183762
		c-0.1950073,0.4868088-0.4350739,0.9543381-0.717041,1.396492c-0.2161636,0.3533707-0.4898911,0.6681061-0.8098679,0.9311829
		c-0.3654861,0.3395844-0.903038,0.4173813-1.3497925,0.1953506c-0.165741-0.0924149-0.3039322-0.2272568-0.4003754-0.3906937
		c-0.1377487-0.229187-0.2323303-0.4816742-0.279068-0.7449493
		C74.8353806,118.4507751,74.7979279,118.0663681,74.8039932,117.6814194z"/>
	<path d="M95.3674927,108.95961l-2.9348068,7.6715927c-0.1509323,0.3588028-0.2927475,0.6982422-0.4248734,1.0285721
		l-0.1036606,0.2927399c-0.0472717,0.1133347-0.0945282,0.2357864-0.1418076,0.3588028
		c-0.0187912-0.2078781-0.0472717-0.4060745-0.0751724-0.6037064c-0.0563812-0.3394394-0.1129379-0.6790695-0.1697235-1.0188904
		l-1.2267609-6.8702545l-0.1509399-0.8588562h-5.1713333l3.7366943,15.5134659l-3.7366943,7.5212326h4.991951l9.9366074-22.1194611
		l0.4151917-0.9152374H95.3674927z"/>
	<path d="M23.2015839,105.986084l3.032753-3.3966827c-2.2769871-2.3464661-6.3035717-2.8795471-9.2184391-1.6391068
		c-5.3234119,1.9375458-6.9448681,10.8603897-0.6874256,12.6828918l0,0
		c1.6117764,0.6373062,4.2526894,1.0137634,3.9650822,3.2913208c-0.5832024,3.7577667-4.7413483,2.5116348-6.7899532,0.7364044
		l-3.2617102,3.2782211l-0.0649252,0.0751801c6.1515064,6.1395493,17.3917847,1.0883789,14.8590755-7.8310547
		c-0.8412018-2.2604752-3.2429142-3.0663605-5.2966461-3.8403549c-1.5941162-0.5661163-3.063509-1.3788376-2.3510284-3.29702
		C18.4477043,103.552475,21.7931366,104.4301224,23.2015839,105.986084z"/>
	<path d="M57.6263466,108.9960632h-4.0095062l-1.8361702,14.5953827l-0.0187874,0.1218796h4.6183357l0,0l0.1876297-2.5692978
		c0.2716599-2.7918472,0.7577934-6.536377,2.612751-7.6982193c0.6934204-0.4034042,1.528965-0.4821091,2.2855301-0.2152863
		c0.1310005,0.03759,0.2625542,0.0842896,0.3935509,0.1309967l0.0654907,0.0279083l0.056385-0.580925l0.1030846-1.0211639
		l0.2625542-2.5668793l0.0091057-0.1030884l0.0091095-0.1030884c-0.149929-0.0447464-0.3035545-0.076004-0.4590454-0.093399
		c-1.8828697-0.2528763-3.5225487,1.3304214-4.4873352,2.5480804l0.0279121-0.280777L57.6263466,108.9960632z"/>
	<path d="M48.5423126,109.0997162c-0.6838799-0.0929718-1.3732338-0.1399689-2.0634041-0.1406784
		c-1.3242569-0.0135727-2.6368828,0.2482529-3.8545952,0.7688675c-1.1373405,0.4965057-2.1689568,1.2064209-3.0390167,2.0913239
		c-0.852787,0.8820496-1.5278206,1.9200211-1.9882355,3.0572433c-0.473423,1.1742783-0.7153625,2.4290009-0.7124863,3.6951218
		c-0.0162621,0.7856445,0.0978622,1.5685425,0.3377342,2.3168564c0.1866074,0.5915604,0.4894409,1.1399155,0.8907509,1.6129074
		c0.3552818,0.4109421,0.7974625,0.7377625,1.2945518,0.9568176c0.4783516,0.2122726,0.9961777,0.320961,1.5195084,0.3189316
		c0.4751205,0.0029831,0.9474411-0.0730438,1.3976364-0.2249603c0.3585129-0.1106644,0.6994705-0.2717438,1.0126381-0.4784012
		c0.6740074-0.4389191,1.2699547-0.9873276,1.7632713-1.6225967l-0.2067413,2.1015701h4.0516548l1.734787-13.8527145
		l0.0091057-0.0751801l-0.0842934-0.0279083C49.9381065,109.3552246,49.2462311,109.1884689,48.5423126,109.0997162z
		 M41.3952713,118.8819885c-0.0822639-0.3820267-0.1201019-0.7722778-0.1127663-1.1629868
		c-0.0036163-0.76931,0.1102638-1.5346603,0.3377266-2.2695847c0.2104607-0.6673431,0.5305443-1.2949982,0.9471245-1.8572388
		c0.3926849-0.5183487,0.89151-0.9468918,1.4631271-1.256958c0.576313-0.3096619,1.2218475-0.4678192,1.8760414-0.45961h0.1497879
		l-0.3656387,2.8607559c-0.1131477,0.9389267-0.3464851,1.8594208-0.6942558,2.7388763
		c-0.1969566,0.4932098-0.4386902,0.9673309-0.722168,1.4164276c-0.2230301,0.3521576-0.4982033,0.6684341-0.8161469,0.9380188
		c-0.3705063,0.3438568-0.9138107,0.4256668-1.3691483,0.2061691c-0.1702271-0.0963821-0.3125229-0.2353287-0.4129143-0.4032288
		C41.5428352,119.3990784,41.44804,119.1456299,41.3952713,118.8819885z"/>
	<polygon points="63.1593437,123.6005554 63.149662,123.7127533 67.3522339,123.7127533 69.7385712,100.342598 
		69.7482529,100.2304001 65.5456772,100.2304001 	"/>
</g>
</svg>
