<?xml version="1.0" encoding="utf-8"?>
<!-- Generator: Adobe Illustrator 25.4.1, SVG Export Plug-In . SVG Version: 6.00 Build 0)  -->
<!DOCTYPE svg PUBLIC "-//W3C//DTD SVG 1.1//EN" "http://www.w3.org/Graphics/SVG/1.1/DTD/svg11.dtd" [
	<!ENTITY st0 "fill:url(#SVGID_1_);">
	<!ENTITY st1 "fill:url(#SVGID_00000084516266764369278730000013616975319413652888_);">
	<!ENTITY st2 "fill:#FFFFFF;">
	<!ENTITY st3 "fill:url(#SVGID_00000073681921157898493780000013668552640759198365_);">
	<!ENTITY st4 "fill:url(#SVGID_00000014633496642229067450000014746681723634257571_);">
	<!ENTITY st5 "fill:url(#SVGID_00000170239219146147479060000011025754979818948793_);">
	<!ENTITY st6 "fill:url(#SVGID_00000118354656435696304110000005202993748422670754_);">
]>
<svg version="1.1" id="レイヤー_1" xmlns="http://www.w3.org/2000/svg" xmlns:xlink="http://www.w3.org/1999/xlink" x="0px"
	 y="0px" viewBox="0 0 256.2026062 122.8900375" style="enable-background:new 0 0 256.2026062 122.8900375;" xml:space="preserve">
<g>
	<g>
		<g>
			<linearGradient id="SVGID_1_" gradientUnits="userSpaceOnUse" x1="52.8853149" y1="54.450161" x2="89.2536163" y2="54.450161">
				<stop  offset="0" style="stop-color:#A50066"/>
				<stop  offset="0.9950389" style="stop-color:#E6007A"/>
			</linearGradient>
			<path style="&st0;" d="M60.1387787,50.1238327l-0.6171417-0.2981071l0,0l-0.8987961-0.434124
				c-0.0061073-0.0028305-0.0087547-0.0100784-0.0059204-0.0161819c0.0019951-0.0042915,0.0062904-0.0070419,0.0110207-0.0070534
				c1.1918449-0.0128517,2.2782898-0.6855392,2.8211021-1.7467384c3.9551849-7.7755852,13.4644699-10.8724327,21.2395782-6.9170074
				c1.2697067,0.6459351,2.4461975,1.4606819,3.497467,2.4220734c-3.7244415,7.671032-5.8575516,11.613945-8.7925568,12.6375084
				c-3.1016235,1.0813408-7.5248184-0.9447556-16.0793571-5.0724602
				C60.931057,50.5064011,60.539257,50.3170967,60.1387787,50.1238327z M70.1418457,69.659874
				c1.0872116,0.3897629,1.8448715,1.3808289,1.9358902,2.5322647c0.0004883,0.0068359,0.0064163,0.0119858,0.0132599,0.0115051
				c0.0046539-0.0003357,0.0087204-0.0032425,0.0105515-0.0075378c2.3654251-5.189209,3.3617401-8.3426323,2.5337372-10.7179031
				c-1.07901-3.0950432-5.4024734-5.2980232-13.9213181-9.4155006l-0.6857185-0.3309746
				c-1.5184975,7.6537514,2.7778511,15.2698212,10.1135674,17.9281616L70.1418457,69.659874z M71.4588699,73.5874939
				c-8.8407784-1.9196625-15.1481209-9.7423134-15.1499443-18.7896271c0.0000038-0.4052238,0.0124664-0.807045,0.0374031-1.2054596
				c0.0826874-1.3073692,1.1204681-2.3515282,2.4272385-2.4421501c0.006691-0.000164,0.0119858-0.005722,0.0118217-0.012413
				c-0.0001183-0.0047226-0.0029602-0.0089417-0.0072861-0.0108223l-5.0522461-2.4398804
				c-3.3663826,12.0605469,3.6810379,24.5667191,15.7408485,27.9333038c0.1618423,0.0451813,0.3241806,0.0885544,0.4869843,0.130127
				c0.5406418-1.1255798,1.0423813-2.1799393,1.505188-3.1630783H71.4588699z M57.2848129,48.7454834
				c3.3460274-10.0823021,14.2313385-15.5429649,24.3130264-12.1967316
				c1.0598679,0.3517799,2.0870743,0.7952003,3.0699997,1.3252373c1.3993835,0.7577019,2.2450943,2.2462883,2.1795502,3.8363647
				c-0.0007248,0.0065308,0.0039749,0.0124168,0.0105133,0.0131454c0.0051193,0.0005684,0.010025-0.002224,0.012146-0.0069122
				c0.1734161-0.35989,0.3504181-0.7265739,0.5310059-1.1000404l0.2980881-0.6171837l0,0l1.5544739-3.2191696
				c-9.9519501-7.5780602-24.162468-5.6531506-31.7400742,4.299408c-1.4239464,1.8702393-2.5480919,3.9507523-3.3320694,6.1668205
				L57.2848129,48.7454834z"/>
			
				<linearGradient id="SVGID_00000142155345508930989020000013424034106028750995_" gradientUnits="userSpaceOnUse" x1="71.4577484" y1="57.5994263" x2="98.1805801" y2="57.5994263">
				<stop  offset="0" style="stop-color:#0297FB"/>
				<stop  offset="0.9944" style="stop-color:#0AE2FF"/>
			</linearGradient>
			<path style="fill:url(#SVGID_00000142155345508930989020000013424034106028750995_);" d="M98.1805573,54.7978668
				c0.0062943,4.2532425-1.1908035,8.4214745-3.4529877,12.02314c-1.7567902-0.8591766-3.3062057-1.6350861-4.6510239-2.3565598
				c-0.0057449-0.0029297-0.0080414-0.0099716-0.0051041-0.0157242c0.0020523-0.0040359,0.0062485-0.0065231,0.0107727-0.0063782
				c1.4158936-0.0681,2.6656265-0.9464836,3.2092972-2.2556953c3.0331268-7.3043556,1.287674-15.7208862-4.3999557-21.2164764
				l1.5533371-3.2163353C95.3662415,42.0494919,98.1873474,48.2652435,98.1805573,54.7978668z M85.6527863,66.9490967
				c0.8915939-0.7403412,2.0153046-1.143219,3.1741638-1.1380157c0.0069427,0.0000763,0.0126419-0.0054932,0.0127106-0.0124435
				c0.000061-0.0053024-0.003212-0.0100708-0.0081787-0.0119247c-3.8972855-1.6424637-6.4690399-2.251152-8.4825668-1.5495071
				c-1.9868698,0.6931229-3.6071243,2.7260895-5.6013947,6.3453903
				C78.7094421,70.7806854,82.6013336,69.4839554,85.6527863,66.9490967z M90.7118378,66.6101913
				c-3.4352951,4.3804321-8.5857544,7.0751495-14.1429062,7.3995514c-1.2481155,0.0727921-2.3460541-0.8176041-2.5326385-2.0539169
				c-0.0006104-0.0066299-0.0064697-0.0115204-0.013092-0.0109177c-0.0040665,0.0003662-0.0076752,0.0027695-0.0095749,0.0063782
				c-0.7752533,1.4820633-1.6156769,3.1879959-2.5558777,5.126297c8.5797806,1.5620117,17.2950974-1.9347305,22.4163513-8.9938354
				c-1.1328583-0.5389938-2.1869507-1.0301819-3.162262-1.4735794V66.6101913z M88.9476776,46.4303055
				c-0.7115707-1.1407433-1.0098572-2.4912491-0.8449631-3.8255997c-4.0740967,8.4480476-6.0689316,12.8375702-4.9944458,15.9190178
				c0.6381149,1.8306236,2.4119415,3.3489571,5.5158234,5.1353722c3.5066452-5.1731682,3.6334991-11.9275818,0.3235931-17.2287865
				L88.9476776,46.4303055z"/>
		</g>
	</g>
	<g>
		<path d="M132.361969,43.6453629h-4.34375l-0.5315094,5.2146873h-1.8295822l-0.0590515,0.5882645
			c-0.0946045,0.9489059-0.2585907,2.589283-0.3176422,3.1620674l-0.0120392,0.1158218h1.8261414
			c-0.0447235,0.5148773-0.1593933,1.5899239-0.2906952,2.8203468c-0.2935486,2.7572746-0.6960526,6.5345612-0.6736908,7.3796883
			c0.0223618,1.8823318,0.8187485,3.2583923,2.2423935,3.8747559c0.5503845,0.2318497,1.1423645,0.3487244,1.739563,0.3434372
			c1.4253693-0.0116348,2.7915497-0.5715332,3.8151398-1.5635452l0.0504456-0.0493088l-1.2481995-3.1465836l-0.099762,0.0561867
			c-0.3840332,0.272583-0.8904572,0.300457-1.3020935,0.0716705c-0.430603-0.2832413-0.6364288-0.9150772-0.5796661-1.7779808
			c0.1198273-1.8169708,0.3268127-3.6540108,0.5274963-5.4302711c0.0968933-0.8588905,0.1937866-1.7183571,0.2815094-2.5778198
			l3.2601166-0.0103188l0.0097504-0.0940323c0.0917358-0.9070511,0.2746277-2.7291832,0.3652191-3.6471291l0.0114746-0.115242
			h-3.3581543l0.5165863-5.2146912"/>
		<path d="M180.2878113,52.4980049c-0.6870575-0.0853958-1.3786316-0.1292419-2.0709686-0.1312981
			c-1.3303528-0.0129852-2.6487427,0.2520218-3.8707428,0.7780495c-1.1358032,0.4973106-2.1663666,1.2066002-3.036499,2.0898857
			c-0.8573761,0.8809052-1.5325012,1.9223289-1.9866791,3.0645981c-0.4809265,1.1746254-0.726181,2.4323463-0.7218628,3.7015991
			c-0.0178223,0.7849731,0.0961456,1.5673752,0.3371429,2.3146515c0.1902161,0.5925217,0.4924927,1.1429825,0.8904266,1.6214523
			c0.3550262,0.414444,0.8007965,0.7415009,1.3026733,0.9557877c0.075119,0.0372696,0.1496277,0.065361,0.2247467,0.0940323
			c0.3965302,0.1451874,0.8150482,0.2212067,1.2373047,0.2247543c0.0177307,0.0074844,0.0369873,0.0106354,0.0561829,0.0091782
			c0.8564148-0.0089951,1.6934967-0.2557297,2.4178619-0.7126846c0.6076508-0.3964996,1.1485443-0.8868942,1.6025391-1.4528885
			l-0.2155914,1.9396744h4.2359772l1.7338257-13.889019l0.0091705-0.0842857l-0.075119-0.0280991
			C181.6856689,52.7618599,180.9923096,52.5959549,180.2878113,52.4980049z M173.5027008,61.1482582
			c-0.0049896-0.7650337,0.1055756-1.5264359,0.3279572-2.2584572c0.2082214-0.6675949,0.5283051-1.2949791,0.9466095-1.8553886
			c0.3927307-0.5151558,0.8912659-0.9401855,1.4620514-1.246479c0.5716248-0.3115883,1.2141876-0.4698105,1.8651276-0.4592628
			h0.1496429l-0.3749695,2.8398438c-0.1099854,0.9377174-0.3398743,1.8574409-0.684021,2.7366371
			c-0.1963196,0.490078-0.4379883,0.9607468-0.7218475,1.4058762c-0.2176208,0.3557472-0.4931946,0.672596-0.8153229,0.9374428
			c-0.3679352,0.3418617-0.9090881,0.4201775-1.3588562,0.1966629c-0.1668549-0.0930405-0.3059692-0.2287903-0.4030609-0.393322
			c-0.1386719-0.2307281-0.2338867-0.4849091-0.2809448-0.7499542
			C173.5343018,61.9227829,173.4965973,61.5357971,173.5027008,61.1482582z"/>
		<path d="M194.2043457,52.3678551l-2.9545135,7.7231293c-0.151947,0.3612137-0.2947235,0.7029381-0.4277344,1.0354843
			l-0.1043549,0.2947044c-0.0475922,0.1140976-0.0951691,0.2373734-0.1427612,0.3612175
			c-0.0189209-0.2092743-0.0475922-0.4088058-0.0756683-0.6077614c-0.0567627-0.3417206-0.1137085-0.6836357-0.1708679-1.0257378
			l-1.2350159-6.9164124l-0.151947-0.864624h-5.2060699l3.761795,15.6176949l-3.761795,7.5717621h5.0254822l10.0033722-22.2680702
			l0.417984-0.9213867H194.2043457z"/>
		<path d="M121.5536118,49.3743515l3.0531235-3.4195023c-2.2922821-2.3622322-6.3459167-2.8988953-9.2803726-1.6501236
			c-5.3591766,1.9505653-6.9915237,10.9333611-0.6920395,12.7681046l0,0
			c1.6226044,0.6415901,4.2812576,1.0205765,3.9917221,3.3134346c-0.5871201,3.7830162-4.7732086,2.5285034-6.8355713,0.7413521
			l-3.2836227,3.3002472l-0.065361,0.0756836c6.1928329,6.1807938,17.5086288,1.0956879,14.9589005-7.8836708
			c-0.8468552-2.2756577-3.2647018-3.0869598-5.3322296-3.8661537c-1.6048279-0.5699196-3.0840912-1.3880997-2.3668213-3.3191681
			C116.7677917,46.9243927,120.1356964,47.8079376,121.5536118,49.3743515z"/>
		<path d="M156.2096405,52.4045525h-4.036438l-1.8485107,14.6934395l-0.0189056,0.1226959h4.6493683l0,0l0.1888885-2.5865631
			c0.2734833-2.8105965,0.7628784-6.5802841,2.6302948-7.7499352c0.6980896-0.4061089,1.5392456-0.4853401,2.3008881-0.2167282
			c0.1318817,0.0378418,0.2643127,0.0848579,0.3961945,0.1318741l0.0659332,0.0280952l0.0567627-0.5848236l0.103775-1.0280304
			l0.2643127-2.5841255l0.0091705-0.103775l0.0091705-0.1037788c-0.1509247-0.0450478-0.3055878-0.0765152-0.4621277-0.0940323
			c-1.8955231-0.25457-3.5462189,1.3393631-4.5174866,2.5652046l0.0281067-0.2826653L156.2096405,52.4045525z"/>
		<path d="M147.0645905,52.5089035c-0.6884766-0.0936012-1.3824615-0.1409149-2.0772705-0.1416206
			c-1.3331604-0.0136681-2.6546021,0.2499161-3.8804932,0.7740326c-1.144989,0.499836-2.1835327,1.2145195-3.059433,2.1053658
			c-0.8585205,0.8879814-1.5380859,1.9329224-2.0015869,3.0777893c-0.4766083,1.1821632-0.7201843,2.4453201-0.7172852,3.719944
			c-0.0163574,0.7909203,0.098526,1.5790825,0.3400116,2.3324165c0.187851,0.5955429,0.4927216,1.147583,0.8967285,1.6237488
			c0.357666,0.4137039,0.8028259,0.7427216,1.3032532,0.9632416c0.4815674,0.213707,1.0028687,0.3231277,1.5297241,0.3210831
			c0.478302,0.0029984,0.9537964-0.0735397,1.4070129-0.2264786c0.3609314-0.1114044,0.7041779-0.2735672,1.0194397-0.4816132
			c0.6785431-0.441864,1.2784882-0.9939575,1.7751312-1.6334991l-0.2081451,2.1156921h4.0788879l1.7464294-13.9457779
			l0.0091705-0.0756874l-0.0848541-0.0280952C148.4697571,52.7661285,147.7732391,52.5982513,147.0645905,52.5089035z
			 M139.8695221,62.3568916c-0.0828094-0.3845901-0.1208954-0.777462-0.1135254-1.1707954
			c-0.0036316-0.7744789,0.1110077-1.5449715,0.3399963-2.284832c0.2118835-0.6718292,0.5341187-1.3037033,0.9534912-1.8697205
			c0.3953247-0.5218315,0.8975067-0.9532509,1.4729614-1.2653999c0.5801849-0.3117447,1.2300568-0.4709587,1.8886414-0.4626999
			h0.1508026l-0.368103,2.8799782c-0.1139069,0.9452324-0.3488159,1.8719101-0.6989136,2.7572746
			c-0.198288,0.4965248-0.4416351,0.973835-0.7270203,1.4259415c-0.2245331,0.3545303-0.5015564,0.6729279-0.82164,0.9443245
			c-0.3729858,0.3461685-0.9199371,0.4285278-1.3783417,0.2075539c-0.1713715-0.0970345-0.314621-0.2369118-0.4156952-0.4059372
			C140.0180817,62.8774567,139.9226532,62.6223068,139.8695221,62.3568916z"/>
		<polygon points="161.7798157,67.1071625 161.7700653,67.2201157 166.0008698,67.2201157 168.403244,43.6929512 
			168.4129944,43.579998 164.1821899,43.579998 		"/>
	</g>
</g>
</svg>
