<?xml version="1.0" encoding="utf-8"?>
<!-- Generator: Adobe Illustrator 25.4.1, SVG Export Plug-In . SVG Version: 6.00 Build 0)  -->
<!DOCTYPE svg PUBLIC "-//W3C//DTD SVG 1.1//EN" "http://www.w3.org/Graphics/SVG/1.1/DTD/svg11.dtd" [
	<!ENTITY st0 "fill:url(#SVGID_1_);">
	<!ENTITY st1 "fill:url(#SVGID_00000042018394810332127750000004396966557215068863_);">
	<!ENTITY st2 "fill:#FFFFFF;">
	<!ENTITY st3 "fill:url(#SVGID_00000178172570846299369390000017879590978993588151_);">
	<!ENTITY st4 "fill:url(#SVGID_00000011710692384305403160000014488284787914288062_);">
	<!ENTITY st5 "fill:url(#SVGID_00000106840598302795409920000011038306389358723261_);">
	<!ENTITY st6 "fill:url(#SVGID_00000050664224041406894630000003921245117788703662_);">
]>
<svg version="1.1" id="レイヤー_1" xmlns="http://www.w3.org/2000/svg" xmlns:xlink="http://www.w3.org/1999/xlink" x="0px"
	 y="0px" viewBox="0 0 110.4891281 144.9237213" style="enable-background:new 0 0 110.4891281 144.9237213;" xml:space="preserve">
<g>
	<g>
		<g>
			<linearGradient id="SVGID_1_" gradientUnits="userSpaceOnUse" x1="16.4548931" y1="45.5789146" x2="80.6488419" y2="45.5789146">
				<stop  offset="0" style="stop-color:#A50066"/>
				<stop  offset="0.9950389" style="stop-color:#E6007A"/>
			</linearGradient>
			<path style="&st0;" d="M29.2580338,37.9424782l-1.0893211-0.5261879l0,0l-1.5864716-0.7662735
				c-0.0107746-0.0049973-0.0154533-0.0177917-0.0104465-0.0285683c0.0035172-0.0075684,0.0111046-0.0124245,0.019453-0.0124474
				c2.1037292-0.0226822,4.0214214-1.2100487,4.9795475-3.0831795c6.9813251-13.724741,23.7662258-19.1910095,37.4901276-12.209259
				c2.2411804,1.1401443,4.3178024,2.5782585,6.1734085,4.2752171
				c-6.5740356,13.5401974-10.3392105,20.4998608-15.5198021,22.3065624
				c-5.4746971,1.90868-13.2821198-1.6675987-28.381794-8.9534416
				C30.6564903,38.6177559,29.9649239,38.2836151,29.2580338,37.9424782z M46.9145164,72.4256897
				c1.9190445,0.6879807,3.2564011,2.4373169,3.4170647,4.4697113c0.0008545,0.0120697,0.011322,0.0211639,0.0233955,0.0203094
				c0.008213-0.0005875,0.0154037-0.005722,0.0186234-0.0133057c4.1752396-9.1595078,5.9338341-14.7256317,4.4723244-18.9182434
				c-1.9045753-5.4630852-9.5359497-9.3515778-24.5726204-16.6193657l-1.2103672-0.5842094
				c-2.6803093,13.5096931,4.9032078,26.9528732,17.8515339,31.6451263L46.9145164,72.4256897z M49.239212,79.3583603
				c-15.6049232-3.3884125-26.7380562-17.196228-26.7412777-33.1657104c0.0000076-0.7152596,0.0220032-1.4245186,0.0660229-2.127758
				c0.1459465-2.3076515,1.9777451-4.1507034,4.2843323-4.3106575c0.0118141-0.0002899,0.0211544-0.0101051,0.0208645-0.0219116
				c-0.000206-0.0083351-0.0052204-0.0157852-0.0128593-0.019104l-8.9177532-4.3066521
				c-5.94203,21.2881622,6.4974251,43.3628883,27.7842903,49.3052711c0.2856674,0.0797501,0.5722084,0.1563187,0.8595695,0.2296906
				c0.9542961-1.9867706,1.83992-3.8478317,2.656826-5.583168H49.239212z M24.2204781,35.5095482
				c5.9060993-17.7963428,25.1198387-27.4349976,42.9150963-21.5285416
				c1.8707809,0.6209316,3.6839142,1.4036179,5.4188766,2.3391867c2.4700699,1.3374233,3.9628372,3.964941,3.8471375,6.771595
				c-0.0012817,0.0115318,0.0070267,0.0219193,0.0185623,0.0232029c0.0090408,0.0010033,0.0176926-0.0039196,0.0214462-0.0121975
				c0.3060913-0.6352482,0.618515-1.2824802,0.9372787-1.9416943l0.5261536-1.0893898l0,0l2.7438126-5.6821775
				C63.0825806,1.0134385,37.9994965,4.4111099,24.6242085,21.978447c-2.5134125,3.3011665-4.497654,6.9734993-5.8814564,10.8850937
				L24.2204781,35.5095482z"/>
			
				<linearGradient id="SVGID_00000150816005067452991940000001519889768597139846_" gradientUnits="userSpaceOnUse" x1="49.2372284" y1="51.1377068" x2="96.4058914" y2="51.1377068">
				<stop  offset="0" style="stop-color:#0297FB"/>
				<stop  offset="0.9944" style="stop-color:#0AE2FF"/>
			</linearGradient>
			<path style="fill:url(#SVGID_00000150816005067452991940000001519889768597139846_);" d="M96.4058533,46.1926498
				c0.0111084,7.507431-2.1018982,14.8648109-6.0948944,21.2221375c-3.1009293-1.5165405-5.8358154-2.8861084-8.209549-4.1595879
				c-0.0101547-0.0051727-0.0141983-0.017601-0.0090256-0.0277596c0.0036392-0.0071106,0.0110397-0.0115013,0.0190201-0.0112572
				c2.4992065-0.1201973,4.7051239-1.6706429,5.6647568-3.9815369c5.3537979-12.892971,2.2728806-27.7490463-7.7663956-37.4493561
				l2.7418137-5.6771755C91.4382782,23.690403,96.4178314,34.661869,96.4058533,46.1926498z M74.2929916,67.6408844
				c1.573761-1.3067932,3.5572281-2.0179138,5.6027451-2.008728c0.0122528,0.0001297,0.022316-0.009697,0.022438-0.021965
				c0.0001068-0.0093613-0.0056839-0.0177765-0.0144424-0.0210495c-6.8791199-2.8991165-11.418541-3.9735222-14.972641-2.7350502
				c-3.5070381,1.2234383-6.3669586,4.8118477-9.8870659,11.2002983
				C62.0372429,74.4040451,68.9068527,72.115181,74.2929916,67.6408844z M83.2227631,67.0426636
				c-6.0636673,7.7319489-15.1547852,12.4884033-24.9637451,13.0610123c-2.203064,0.128479-4.1410332-1.4431686-4.4703865-3.6253891
				c-0.0010681-0.0117035-0.0114174-0.0203247-0.0231094-0.0192642c-0.0071716,0.0006485-0.0135384,0.0048828-0.0168953,0.0112534
				c-1.3684044,2.6159973-2.8518448,5.6271515-4.5113983,9.0484619
				c15.1442337,2.7571182,30.5277023-3.4150009,39.5672684-15.8750839c-1.9996185-0.9513779-3.860199-1.8183823-5.5817337-2.6010208
				V67.0426636z M80.1088257,31.423008c-1.2559891-2.0135307-1.7824936-4.3973198-1.4914398-6.7525902
				c-7.1912308,14.9117088-10.712326,22.659687-8.8157349,28.0987701c1.1263428,3.2312469,4.2573242,5.9112663,9.7360229,9.0644836
				c6.1895981-9.1311951,6.4135132-21.0534592,0.571167-30.410656L80.1088257,31.423008z"/>
		</g>
	</g>
</g>
<g>
	<path d="M35.1236496,96.1059036H30.808876l-0.527956,5.1798859h-1.8173733l-0.0586586,0.584343
		c-0.0939693,0.9425735-0.2568607,2.5719986-0.3155212,3.1409607l-0.0119591,0.1150513h1.8139572
		c-0.0444241,0.5114441-0.158329,1.5793152-0.2887554,2.8015213c-0.2915955,2.7388763-0.691412,6.4909515-0.6692009,7.3304443
		c0.022213,1.8697739,0.8132877,3.2366486,2.2274361,3.8488922c0.546711,0.2303085,1.1347332,0.346405,1.7279568,0.341156
		c1.4158516-0.0115585,2.7729187-0.5677261,3.7896652-1.5531158l0.0501175-0.0489807l-1.239872-3.1255875l-0.0990944,0.0558167
		c-0.3814735,0.2707596-0.8845139,0.2984467-1.2934036,0.0711899c-0.4277229-0.2813492-0.6321793-0.9089737-0.575798-1.7661133
		c0.1190338-1.8048477,0.3246384-3.6296234,0.5239677-5.3940353c0.0962563-0.853157,0.1925011-1.7068863,0.2796402-2.5606155
		l3.2383575-0.0102463l0.0096817-0.0934067c0.0911255-0.901001,0.2728081-2.710968,0.3627853-3.6227875l0.0113945-0.1144791
		h-3.335743l0.5131493-5.1798859"/>
	<path d="M82.7296448,104.8994675c-0.6824722-0.0848236-1.3694229-0.1283798-2.0571442-0.1304169
		c-1.3214722-0.0129013-2.6310577,0.2503357-3.8449097,0.77285c-1.1282196,0.4939957-2.1519089,1.198555-3.0162354,2.075943
		c-0.8516541,0.8750229-1.5222702,1.9095001-1.9734268,3.0441437c-0.4777069,1.1667862-0.7213364,2.4161148-0.717041,3.6769028
		c-0.0176926,0.7797318,0.0955048,1.5569077,0.3348923,2.2991943c0.1889496,0.5885773,0.489212,1.1353607,0.884491,1.6106415
		c0.3526535,0.4116745,0.7954407,0.7365494,1.2939758,0.9494095c0.0746155,0.0370178,0.1486359,0.0649261,0.2232513,0.093399
		c0.3938828,0.1442184,0.8096161,0.2197342,1.2290421,0.223259c0.0176086,0.007431,0.0367432,0.0105591,0.0558167,0.0091095
		c0.8506927-0.0089264,1.6821899-0.2540207,2.4017181-0.7079239c0.6035995-0.3938599,1.1408844-0.8809738,1.5918503-1.4431915
		l-0.2141495,1.9267273h4.207695l1.7222595-13.7963333l0.0091095-0.0837173l-0.0746155-0.027916
		C84.1181793,105.1615601,83.4294434,104.9967651,82.7296448,104.8994675z M75.9898224,113.4919968
		c-0.0049591-0.7599335,0.1048737-1.5162506,0.3257675-2.2433929c0.2068253-0.6631393,0.5247726-1.2863312,0.9402924-1.8430023
		c0.3901138-0.5117188,0.8853226-0.9339142,1.452301-1.2381592c0.5678101-0.3095093,1.2060852-0.4666748,1.8526764-0.4561996
		h0.1486435l-0.372467,2.8208923c-0.1092606,0.9314575-0.3376083,1.845047-0.679451,2.7183762
		c-0.1950073,0.4868088-0.4350739,0.9543381-0.717041,1.396492c-0.2161636,0.3533707-0.4898911,0.6681061-0.8098679,0.9311829
		c-0.3654861,0.3395844-0.903038,0.4173813-1.3497925,0.1953506c-0.165741-0.0924149-0.3039322-0.2272568-0.400383-0.3906937
		c-0.1377411-0.229187-0.2323227-0.4816742-0.2790604-0.7449493
		C76.0212097,114.2613525,75.983757,113.8769455,75.9898224,113.4919968z"/>
	<path d="M96.5533142,104.7701874l-2.9347992,7.6715927c-0.1509323,0.3588028-0.2927475,0.6982422-0.4248734,1.0285721
		l-0.1036606,0.2927399c-0.0472717,0.1133347-0.0945358,0.2357864-0.1418076,0.3588028
		c-0.0187912-0.2078781-0.0472794-0.4060745-0.0751724-0.6037064c-0.0563812-0.3394394-0.1129379-0.6790695-0.1697235-1.0188904
		l-1.2267609-6.8702545l-0.1509399-0.8588562h-5.1713333l3.7366943,15.5134659l-3.7366943,7.5212326h4.991951l9.9366074-22.1194611
		l0.4151917-0.9152374H96.5533142z"/>
	<path d="M24.3874111,101.7966614l3.0327549-3.3966827c-2.276989-2.3464661-6.3035717-2.8795547-9.218441-1.6391144
		c-5.32341,1.9375534-6.9448662,10.8603973-0.6874237,12.6828995l0,0c1.6117744,0.6373062,4.2526894,1.0137634,3.9650803,3.2913208
		c-0.5832005,3.7577667-4.7413464,2.5116348-6.7899523,0.7364044l-3.2617092,3.2782211l-0.0649261,0.0751801
		c6.1515074,6.1395493,17.3917847,1.0883789,14.8590746-7.8310547c-0.8411999-2.2604752-3.2429123-3.0663605-5.2966442-3.8403549
		c-1.5941162-0.5661163-3.063509-1.3788376-2.3510303-3.29702C19.6335316,99.3630524,22.9789658,100.2406998,24.3874111,101.7966614
		z"/>
	<path d="M58.8121758,104.8066406h-4.0095062l-1.8361702,14.5953827l-0.0187874,0.1218796h4.6183357l0,0l0.1876297-2.5692978
		c0.2716599-2.7918472,0.7577934-6.536377,2.612751-7.6982269c0.6934204-0.4033966,1.528965-0.4821014,2.2855301-0.2152786
		c0.1309967,0.03759,0.2625542,0.0842896,0.3935509,0.1309967l0.0654907,0.0279083l0.056385-0.580925l0.1030846-1.0211639
		l0.2625504-2.5668869l0.0091095-0.1030807l0.0091057-0.1030884c-0.1499252-0.0447464-0.3035545-0.076004-0.4590416-0.093399
		c-1.8828697-0.2528763-3.5225487,1.3304214-4.4873352,2.5480804l0.0279121-0.280777L58.8121758,104.8066406z"/>
	<path d="M49.728138,104.9102936c-0.683876-0.0929718-1.37323-0.1399689-2.0634041-0.1406784
		c-1.3242531-0.0135727-2.636879,0.2482529-3.8545914,0.7688675c-1.1373405,0.4965057-2.1689568,1.2064209-3.0390205,2.0913162
		c-0.8527832,0.8820572-1.5278168,1.9200287-1.9882317,3.057251c-0.473423,1.1742783-0.7153625,2.4290009-0.7124863,3.6951218
		c-0.0162621,0.7856445,0.0978622,1.5685425,0.3377304,2.3168488c0.1866112,0.591568,0.4894447,1.1399231,0.8907547,1.612915
		c0.355278,0.4109421,0.7974625,0.7377625,1.2945518,0.9568176c0.4783516,0.2122726,0.9961739,0.320961,1.5195084,0.3189316
		c0.4751205,0.0029755,0.9474411-0.0730438,1.3976364-0.2249603c0.3585129-0.1106644,0.6994705-0.2717514,1.0126343-0.4784012
		c0.6740074-0.4389191,1.2699585-0.9873276,1.7632751-1.6225967l-0.2067413,2.1015701h4.0516548l1.734787-13.8527145
		l0.0091057-0.0751801l-0.0842972-0.0279083C51.1239319,105.165802,50.4320602,104.9990463,49.728138,104.9102936z
		 M42.5811005,114.6925659c-0.0822639-0.3820267-0.1201019-0.7722778-0.1127663-1.1629868
		c-0.0036163-0.76931,0.1102638-1.5346603,0.3377228-2.2695847c0.2104645-0.6673431,0.5305481-1.2949982,0.9471283-1.8572388
		c0.3926849-0.5183487,0.89151-0.9468918,1.4631271-1.256958c0.5763092-0.3096619,1.2218475-0.4678192,1.8760414-0.45961h0.1497879
		l-0.3656387,2.8607559c-0.1131477,0.9389267-0.3464851,1.8594208-0.6942558,2.7388763
		c-0.1969604,0.4932098-0.4386902,0.9673309-0.722168,1.4164276c-0.2230301,0.3521576-0.4982033,0.6684341-0.8161469,0.9380188
		c-0.3705063,0.3438568-0.9138107,0.4256668-1.3691521,0.2061691c-0.1702232-0.0963898-0.3125229-0.2353287-0.4129105-0.4032288
		C42.7286606,115.2096558,42.6338692,114.9562073,42.5811005,114.6925659z"/>
	<polygon points="64.3451691,119.4111328 64.3354874,119.5233307 68.538063,119.5233307 70.9244003,96.1531754 
		70.934082,96.0409775 66.7315063,96.0409775 	"/>
</g>
</svg>
