<?xml version="1.0" encoding="utf-8"?>
<!-- Generator: Adobe Illustrator 25.4.1, SVG Export Plug-In . SVG Version: 6.00 Build 0)  -->
<!DOCTYPE svg PUBLIC "-//W3C//DTD SVG 1.1//EN" "http://www.w3.org/Graphics/SVG/1.1/DTD/svg11.dtd" [
	<!ENTITY st0 "fill:url(#SVGID_1_);">
	<!ENTITY st1 "fill:url(#SVGID_00000122687062776416623210000002148854087986103185_);">
	<!ENTITY st2 "fill:#FFFFFF;">
	<!ENTITY st3 "fill:url(#SVGID_00000116937832595437968040000010887571741897999772_);">
	<!ENTITY st4 "fill:url(#SVGID_00000179605713152486215060000000469028473669948298_);">
	<!ENTITY st5 "fill:url(#SVGID_00000077284144212768772920000018001506632616489374_);">
	<!ENTITY st6 "fill:url(#SVGID_00000115510467925544774800000002117065234229529010_);">
]>
<svg version="1.1" id="レイヤー_1" xmlns="http://www.w3.org/2000/svg" xmlns:xlink="http://www.w3.org/1999/xlink" x="0px"
	 y="0px" viewBox="0 0 110.4891281 144.9237213" style="enable-background:new 0 0 110.4891281 144.9237213;" xml:space="preserve">
<g>
	<g>
		<g>
			<path style="&st2;" d="M24.717968,47.8476524l-1.0893192-0.5261879l0,0l-1.5864716-0.7662735
				c-0.0107765-0.0050011-0.0154533-0.0177917-0.0104485-0.0285683c0.0035191-0.0075722,0.0111046-0.0124245,0.019453-0.0124474
				c2.1037312-0.0226822,4.0214233-1.2100525,4.9795475-3.0831833
				c6.9813251-13.7247391,23.7662258-19.1910076,37.4901276-12.2092571
				c2.2411728,1.1401424,4.3177948,2.5782566,6.1734085,4.2752171
				C64.120224,49.0371513,60.3550529,55.9968109,55.1744652,57.8035126
				c-5.4746971,1.90868-13.2821198-1.6675987-28.3817978-8.9534416C26.1164265,48.5229263,25.42486,48.1887856,24.717968,47.8476524
				z M42.3744507,82.330864c1.9190445,0.687973,3.2564011,2.4373093,3.4170647,4.4697113
				c0.0008545,0.0120621,0.0113258,0.0211639,0.0233994,0.0203094c0.0082092-0.0005875,0.0153999-0.005722,0.0186195-0.0133057
				c4.1752396-9.1595078,5.9338341-14.7256317,4.4723244-18.9182434c-1.9045753-5.463089-9.5359497-9.3515816-24.5726185-16.6193695
				l-1.2103672-0.5842056c-2.6803093,13.5096893,4.9032078,26.9528732,17.851532,31.6451263L42.3744507,82.330864z
				 M44.6991501,89.2635345c-15.6049252-3.3884201-26.73806-17.196228-26.7412796-33.1657104
				c0.0000076-0.7152596,0.0220013-1.4245224,0.066021-2.1277618c0.1459484-2.3076515,1.977747-4.1507034,4.2843342-4.3106575
				c0.0118122-0.0002899,0.0211544-0.0101051,0.0208645-0.0219116c-0.000206-0.0083351-0.0052204-0.0157814-0.0128593-0.019104
				l-8.9177542-4.3066483C7.4564471,66.5998993,19.8959007,88.6746292,41.182766,94.617012
				c0.2856712,0.0797501,0.5722084,0.156311,0.8595695,0.2296906c0.9542961-1.9867783,1.83992-3.8478317,2.6568298-5.583168
				H44.6991501z M19.6804142,45.4147186C25.5865135,27.6183777,44.8002548,17.979723,62.5955124,23.886179
				c1.8707809,0.6209297,3.6839066,1.403616,5.4188766,2.3391857c2.4700623,1.3374233,3.9628372,3.964941,3.8471375,6.771595
				c-0.0012817,0.0115318,0.007019,0.0219193,0.0185623,0.023201c0.0090332,0.0010033,0.0176926-0.0039177,0.0214462-0.0121956
				c0.3060913-0.6352501,0.618515-1.2824802,0.9372711-1.9416943l0.5261612-1.0893898l0,0l2.7438126-5.6821785
				c-17.5662651-13.376092-42.6493492-9.9784203-56.0246353,7.5889168
				c-2.5134125,3.3011684-4.497654,6.9734974-5.8814583,10.8850956L19.6804142,45.4147186z"/>
			<path style="&st2;" d="M91.8657837,56.0978241c0.011116,7.5074272-2.1018982,14.8648071-6.0948868,21.2221375
				c-3.1009293-1.5165482-5.8358154-2.8861084-8.2095566-4.1595917c-0.0101471-0.0051727-0.0141907-0.017601-0.0090179-0.0277557
				c0.0036316-0.0071106,0.0110397-0.0115051,0.0190201-0.011261c2.4991989-0.1201935,4.7051163-1.670639,5.6647568-3.9815369
				c5.3537979-12.8929672,2.2728729-27.7490463-7.7663956-37.4493561l2.7418137-5.6771755
				C86.8982162,33.5955734,91.8777695,44.5670433,91.8657837,56.0978241z M69.7529297,77.546051
				c1.5737534-1.3067856,3.5572281-2.0179138,5.6027374-2.0087204c0.0122604,0.0001297,0.022316-0.0097046,0.022438-0.021965
				c0.0001068-0.0093689-0.0056763-0.0177765-0.0144348-0.0210495c-6.8791275-2.8991165-11.4185448-3.973526-14.972641-2.735054
				c-3.5070419,1.2234421-6.3669624,4.8118439-9.8870697,11.2002945
				C57.4971771,84.3092194,64.3667908,82.0203476,69.7529297,77.546051z M78.6826935,76.9478378
				c-6.0636597,7.7319412-15.1547775,12.4884033-24.9637413,13.0610123c-2.203064,0.128479-4.1410332-1.4431686-4.4703827-3.6253967
				c-0.0010719-0.0116959-0.0114174-0.0203247-0.0231094-0.0192642c-0.0071754,0.0006485-0.0135384,0.0048904-0.0168991,0.011261
				c-1.3684006,2.6159973-2.8518448,5.6271515-4.5113945,9.0484619
				c15.1442299,2.7571106,30.5276947-3.4150085,39.5672684-15.8750916
				c-1.9996185-0.9513702-3.8602066-1.8183746-5.5817413-2.6010132V76.9478378z M75.5687637,41.3281822
				c-1.2559891-2.0135345-1.7825012-4.3973198-1.4914398-6.752594c-7.1912308,14.9117126-10.712326,22.6596909-8.8157349,28.098774
				c1.1263428,3.2312469,4.2573242,5.9112625,9.7360153,9.064476c6.1896057-9.1311913,6.4135208-21.0534554,0.5711746-30.4106483
				L75.5687637,41.3281822z"/>
		</g>
	</g>
</g>
<g>
	<path style="&st2;" d="M30.5835838,106.0110779h-4.3147717l-0.5279579,5.1798859h-1.8173714l-0.0586605,0.5843353
		c-0.0939674,0.9425812-0.2568607,2.5720062-0.3155212,3.1409683l-0.0119572,0.1150513h1.8139572
		c-0.044426,0.5114365-0.1583309,1.5793076-0.2887554,2.8015213c-0.2915955,2.7388763-0.6914139,6.4909515-0.6692009,7.3304443
		c0.022213,1.8697662,0.8132877,3.2366486,2.2274342,3.8488922c0.546711,0.2303162,1.1347351,0.346405,1.7279568,0.341156
		c1.4158516-0.0115662,2.7729206-0.5677185,3.789669-1.5531158l0.0501137-0.0489807l-1.2398701-3.1255875l-0.0990963,0.0558167
		c-0.3814716,0.2707596-0.8845119,0.2984467-1.2934036,0.0711899c-0.427721-0.2813492-0.6321793-0.9089737-0.5757961-1.7661209
		c0.1190319-1.8048401,0.3246365-3.6296234,0.5239677-5.3940277c0.0962543-0.853157,0.1924992-1.7068863,0.2796383-2.5606155
		l3.2383575-0.0102539l0.0096817-0.093399c0.0911293-0.901001,0.2728081-2.7109756,0.3627892-3.6227951l0.0113907-0.1144714
		h-3.335741l0.5131474-5.1798859"/>
	<path style="&st2;" d="M78.1895828,114.8046417c-0.6824722-0.0848236-1.3694305-0.1283798-2.0571442-0.1304245
		c-1.3214798-0.0129013-2.6310654,0.2503433-3.8449173,0.7728577c-1.128212,0.493988-2.1519012,1.1985474-3.0162277,2.075943
		c-0.8516617,0.8750229-1.5222778,1.9095001-1.9734268,3.0441437c-0.4777069,1.1667862-0.7213364,2.4161148-0.717041,3.6768951
		c-0.0176926,0.7797394,0.0955048,1.5569153,0.3348923,2.299202c0.188942,0.5885696,0.489212,1.1353607,0.8844833,1.6106415
		c0.3526535,0.4116669,0.7954483,0.7365417,1.2939758,0.9494019c0.0746155,0.0370178,0.1486435,0.0649261,0.223259,0.0934143
		c0.3938828,0.1442108,0.8096085,0.2197266,1.2290421,0.2232513c0.0176086,0.007431,0.0367432,0.0105591,0.055809,0.0091095
		c0.8507004-0.0089264,1.6821976-0.2540131,2.4017181-0.7079315c0.6035995-0.3938446,1.140892-0.8809662,1.5918503-1.4431839
		l-0.2141495,1.9267197h4.2077026l1.7222519-13.7963257l0.0091095-0.083725l-0.0746155-0.0279083
		C79.5781097,115.0667343,78.8893814,114.9019394,78.1895828,114.8046417z M71.4497528,123.3971634
		c-0.0049515-0.7599258,0.1048813-1.5162506,0.3257675-2.2433853c0.2068329-0.6631393,0.5247803-1.2863312,0.9403-1.8430023
		c0.3901062-0.5117188,0.8853226-0.9339142,1.452301-1.2381668c0.5678101-0.3095016,1.2060776-0.4666672,1.8526764-0.456192
		h0.1486435l-0.3724747,2.8208923c-0.1092529,0.9314575-0.3376007,1.845047-0.6794434,2.7183762
		c-0.195015,0.4868088-0.4350739,0.9543304-0.717041,1.396492c-0.2161636,0.3533707-0.4898911,0.6681061-0.8098755,0.9311829
		c-0.3654785,0.3395844-0.9030304,0.4173737-1.3497849,0.1953506c-0.165741-0.0924149-0.3039398-0.2272644-0.400383-0.3906937
		c-0.1377411-0.229187-0.2323303-0.4816742-0.279068-0.7449493
		C71.4811478,124.1665268,71.4436874,123.7821198,71.4497528,123.3971634z"/>
	<path style="&st2;" d="M92.0132523,114.6753616l-2.9348068,7.6715851
		c-0.1509323,0.3588028-0.2927399,0.6982498-0.4248657,1.0285797l-0.1036606,0.2927322
		c-0.0472794,0.1133423-0.0945358,0.2357864-0.1418076,0.3588028c-0.0187912-0.2078705-0.0472794-0.4060745-0.0751724-0.6036987
		c-0.0563889-0.3394394-0.1129456-0.6790695-0.1697235-1.0188904l-1.2267685-6.8702545l-0.1509323-0.8588562h-5.1713409
		l3.736702,15.5134659l-3.736702,7.5212402h4.991951l9.936615-22.1194687l0.4151917-0.9152374H92.0132523z"/>
	<path style="&st2;" d="M19.8473473,111.7018356l3.032753-3.3966827c-2.2769871-2.3464737-6.3035698-2.8795547-9.2184391-1.6391144
		c-5.323411,1.9375458-6.9448671,10.8603973-0.6874247,12.6828995l0,0c1.6117754,0.6373062,4.2526884,1.0137634,3.9650812,3.2913208
		c-0.5832005,3.7577667-4.7413483,2.5116272-6.7899532,0.7364044l-3.2617092,3.2782211l-0.0649257,0.0751801
		c6.1515069,6.1395493,17.3917847,1.0883713,14.8590755-7.8310623c-0.8412018-2.2604675-3.2429123-3.0663528-5.2966442-3.8403473
		c-1.5941172-0.5661163-3.0635099-1.3788376-2.3510303-3.29702C15.0934677,109.2682266,18.4389,110.145874,19.8473473,111.7018356z"
		/>
	<path style="&st2;" d="M54.27211,114.7118073h-4.0095062l-1.8361702,14.5953827l-0.0187874,0.1218872h4.6183357l0,0
		l0.1876297-2.5693054c0.2716599-2.7918396,0.7577934-6.536377,2.612751-7.6982193
		c0.6934204-0.4033966,1.528965-0.4821014,2.2855301-0.2152786c0.1310005,0.03759,0.2625542,0.0842896,0.3935509,0.1309891
		l0.0654907,0.0279083l0.056385-0.5809174l0.1030846-1.0211716l0.2625542-2.5668793l0.0091057-0.1030807l0.0091095-0.1030884
		c-0.149929-0.0447464-0.3035545-0.076004-0.4590416-0.0934067c-1.8828735-0.2528687-3.5225525,1.3304291-4.487339,2.5480881
		l0.0279121-0.280777L54.27211,114.7118073z"/>
	<path style="&st2;" d="M45.188076,114.8154678c-0.6838799-0.0929794-1.3732338-0.1399765-2.0634041-0.1406784
		c-1.3242569-0.0135727-2.6368828,0.2482452-3.8545952,0.7688675c-1.1373405,0.4964981-2.1689568,1.2064133-3.0390167,2.0913162
		c-0.852787,0.8820572-1.5278168,1.9200211-1.9882355,3.057251c-0.473423,1.1742706-0.7153625,2.4290009-0.7124863,3.6951141
		c-0.0162582,0.7856445,0.0978622,1.5685501,0.3377342,2.3168564c0.1866074,0.591568,0.4894409,1.1399231,0.8907509,1.6129227
		c0.3552818,0.4109344,0.7974625,0.7377472,1.2945518,0.9568024c0.4783516,0.2122803,0.9961777,0.3209686,1.5195122,0.3189392
		c0.4751167,0.0029755,0.9474373-0.0730438,1.3976326-0.2249603c0.3585129-0.110672,0.6994705-0.2717438,1.0126381-0.4784088
		c0.6740074-0.4389191,1.2699547-0.9873199,1.7632751-1.6225891l-0.2067451,2.1015625h4.0516548l1.734787-13.8527069
		l0.0091057-0.0751801l-0.0842934-0.0279083C46.5838699,115.0709763,45.8919945,114.9042206,45.188076,114.8154678z
		 M38.0410347,124.5977325c-0.0822639-0.382019-0.1201019-0.7722702-0.1127663-1.1629791
		c-0.0036125-0.76931,0.1102638-1.5346603,0.3377266-2.2695847c0.2104607-0.6673431,0.5305443-1.2950058,0.9471283-1.8572464
		c0.3926811-0.5183487,0.8915062-0.9468842,1.4631233-1.2569504c0.576313-0.3096695,1.2218475-0.4678192,1.8760414-0.4596176
		h0.1497879l-0.3656387,2.8607635c-0.1131477,0.9389191-0.3464851,1.8594208-0.6942558,2.7388763
		c-0.1969566,0.4932022-0.4386902,0.9673309-0.722168,1.41642c-0.2230301,0.3521652-0.4982033,0.6684418-0.8161469,0.9380188
		c-0.3705063,0.3438644-0.9138107,0.4256744-1.3691483,0.2061768c-0.1702271-0.0963898-0.3125229-0.2353363-0.4129143-0.4032288
		C38.1885986,125.1148224,38.0938034,124.8613815,38.0410347,124.5977325z"/>
	<polygon style="&st2;" points="59.8051071,129.3162994 59.7954254,129.4284973 63.9979973,129.4284973 66.3843384,106.0583496 
		66.3940201,105.9461517 62.1914444,105.9461517 	"/>
</g>
</svg>
