<?xml version="1.0" encoding="utf-8"?>
<!-- Generator: Adobe Illustrator 25.4.1, SVG Export Plug-In . SVG Version: 6.00 Build 0)  -->
<!DOCTYPE svg PUBLIC "-//W3C//DTD SVG 1.1//EN" "http://www.w3.org/Graphics/SVG/1.1/DTD/svg11.dtd" [
	<!ENTITY st0 "fill:url(#SVGID_1_);">
	<!ENTITY st1 "fill:url(#SVGID_00000181058370464565843950000003633597332819679647_);">
	<!ENTITY st2 "fill:#FFFFFF;">
	<!ENTITY st3 "fill:url(#SVGID_00000183214455089249791680000005544557737247447969_);">
	<!ENTITY st4 "fill:url(#SVGID_00000151507933851389112490000013571713854760146837_);">
	<!ENTITY st5 "fill:url(#SVGID_00000036223722907159657260000018408292023730919575_);">
	<!ENTITY st6 "fill:url(#SVGID_00000072262203445123534250000011305370802225479555_);">
]>
<svg version="1.1" id="レイヤー_1" xmlns="http://www.w3.org/2000/svg" xmlns:xlink="http://www.w3.org/1999/xlink" x="0px"
	 y="0px" viewBox="0 0 130.9432526 116.0121994" style="enable-background:new 0 0 130.9432526 116.0121994;" xml:space="preserve">
<g>
	<g>
		<path style="&st2;" d="M38.9101906,49.7797585l-1.0763626-0.5199318l0,0l-1.5676003-0.7571564
			c-0.0106468-0.00494-0.0152702-0.0175781-0.0103226-0.0282288c0.0034752-0.0074806,0.0109711-0.0122757,0.0192223-0.0122986
			c2.0787048-0.0224152,3.973587-1.1956596,4.9203148-3.0465088C48.0937271,31.854147,64.678978,26.4528999,78.2396317,33.3516006
			c2.2145233,1.1265831,4.2664413,2.5475922,6.0999756,4.2243652c-6.495842,13.3791428-10.2162247,20.2560196-15.3351898,22.0412292
			c-5.4095802,1.8859787-13.1241341-1.6477585-28.0442047-8.8469391
			C40.2920151,50.4470024,39.6086731,50.1168327,38.9101906,49.7797585z M56.3566551,83.8527985
			c1.8962173,0.6797943,3.2176666,2.4083252,3.3764191,4.4165421c0.000843,0.0119247,0.0111885,0.0209122,0.0231209,0.0200729
			c0.0081139-0.0005798,0.0152168-0.005661,0.0183983-0.0131454c4.125576-9.05056,5.8632545-14.5504761,4.4191246-18.693222
			c-1.881916-5.3981018-9.4225197-9.2403412-24.2803307-16.4216805l-1.1959686-0.5772591
			c-2.6484299,13.348999,4.844883,26.6322708,17.6391907,31.2687149L56.3566551,83.8527985z M58.6537018,90.7030029
			C43.2343941,87.3548965,32.2336845,73.7113266,32.2305031,57.931797c0.0000076-0.7067528,0.02174-1.4075775,0.0652351-2.1024513
			c0.1442146-2.2802048,1.9542236-4.1013336,4.2333717-4.2593842c0.0116768-0.0002861,0.0209045-0.0099869,0.0206184-0.0216522
			c-0.0002022-0.0082359-0.0051575-0.0155945-0.0127068-0.0188751l-8.8116779-4.2554245
			c-5.8713512,21.0349426,6.4201374,42.8470993,27.4538021,48.7187958c0.2822723,0.078804,0.5653992,0.1544571,0.8493462,0.2269592
			c0.9429436-1.9631424,1.8180313-3.802063,2.6252251-5.5167618H58.6537018z M33.9325562,47.3757668
			c5.8358498-17.5846596,24.8210449-27.1086655,42.4046326-21.2724648c1.848526,0.6135445,3.6400909,1.3869209,5.3544235,2.3113613
			c2.4406815,1.321516,3.9156952,3.9177799,3.8013763,6.6910496c-0.0012665,0.0113945,0.0069351,0.0216599,0.0183411,0.0229263
			c0.0089264,0.0009918,0.0174789-0.0038757,0.0211868-0.0120506c0.3024521-0.6276932,0.6111603-1.2672272,0.9261246-1.9185982
			l0.5199051-1.0764351l0,0l2.711174-5.6145878c-17.3573151-13.2169876-42.1420441-9.8597298-55.3582344,7.4986477
			c-2.4835167,3.261898-4.4441547,6.8905487-5.8114986,10.755619L33.9325562,47.3757668z"/>
		<path style="&st2;" d="M105.2593002,57.931797c0.0109787,7.4181252-2.0768967,14.6879921-6.0223923,20.9696999
			c-3.0640488-1.4985046-5.7663956-2.8517761-8.1119003-4.1101074c-0.0100327-0.0051117-0.0140305-0.0173874-0.0089111-0.0274277
			c0.0035858-0.0070267,0.0109024-0.0113678,0.0187912-0.0111237c2.4694748-0.1187668,4.649147-1.6507721,5.597374-3.9341812
			c5.2901154-12.7396088,2.245842-27.4189758-7.6740189-37.0039024l2.7092056-5.6096458
			C100.3508148,35.6972046,105.2711411,46.5381699,105.2593002,57.931797z M83.4094696,79.1249008
			c1.5550385-1.2912445,3.5149155-1.9939041,5.5361023-1.9848251c0.0121078,0.0001297,0.022049-0.0095901,0.022171-0.0217056
			c0.0000992-0.0092545-0.0056152-0.0175629-0.0142746-0.0207977c-6.7972946-2.8646317-11.2827148-3.9262619-14.7945404-2.7025223
			c-3.4653244,1.2088852-6.2912292,4.7546082-9.7694626,11.06707
			C71.2994995,85.8076248,78.0874023,83.5459824,83.4094696,79.1249008z M92.233017,78.5338058
			c-5.9915314,7.6399689-14.9745102,12.3398514-24.6668015,12.9056473c-2.176857,0.1269531-4.0917778-1.4260025-4.4172096-3.5822678
			c-0.0010567-0.0115585-0.0112839-0.0200806-0.0228348-0.0190353c-0.0070877,0.0006409-0.0133781,0.0048294-0.0166969,0.0111237
			c-1.3521233,2.5848846-2.8179245,5.5602188-4.4577332,8.940834c14.9640884,2.7243195,30.1645737-3.374382,39.0966263-15.6862564
			c-1.9758377-0.9400635-3.8142929-1.7967529-5.5153503-2.570076V78.5338058z M89.1561279,43.3378334
			c-1.2410507-1.9895782-1.7612991-4.3450127-1.4737015-6.6722679c-7.10569,14.7343369-10.5849075,22.3901558-8.7108765,27.7645416
			c1.1129456,3.1928101,4.2066879,5.84095,9.6202164,8.9566574c6.1159744-9.0225754,6.3372269-20.8030281,0.5643768-30.0489235
			L89.1561279,43.3378334z"/>
	</g>
</g>
</svg>
