<?xml version="1.0" encoding="utf-8"?>
<!-- Generator: Adobe Illustrator 25.4.1, SVG Export Plug-In . SVG Version: 6.00 Build 0)  -->
<!DOCTYPE svg PUBLIC "-//W3C//DTD SVG 1.1//EN" "http://www.w3.org/Graphics/SVG/1.1/DTD/svg11.dtd" [
	<!ENTITY st0 "fill:url(#SVGID_1_);">
	<!ENTITY st1 "fill:url(#SVGID_00000175310469883966374240000001410712806822886806_);">
	<!ENTITY st2 "fill:#FFFFFF;">
	<!ENTITY st3 "fill:url(#SVGID_00000133493515061828519920000008062533336002640008_);">
	<!ENTITY st4 "fill:url(#SVGID_00000169552841977521638290000000946750910790890385_);">
	<!ENTITY st5 "fill:url(#SVGID_00000059271740799286301240000011793970386035451039_);">
	<!ENTITY st6 "fill:url(#SVGID_00000135689752427193274610000008332685795341050507_);">
]>
<svg version="1.1" id="レイヤー_1" xmlns="http://www.w3.org/2000/svg" xmlns:xlink="http://www.w3.org/1999/xlink" x="0px"
	 y="0px" viewBox="0 0 256.2026062 122.8900375" style="enable-background:new 0 0 256.2026062 122.8900375;" xml:space="preserve">
<g>
	<g>
		<g>
			<path d="M57.5372772,51.3784027l-0.6171417-0.2981071l0,0l-0.8987961-0.4341202
				c-0.0061073-0.0028343-0.0087547-0.0100784-0.0059204-0.0161858c0.0019951-0.0042877,0.0062904-0.0070381,0.0110207-0.0070534
				c1.1918449-0.0128479,2.2782898-0.6855392,2.8211021-1.7467384c3.9551849-7.7755814,13.4644699-10.8724327,21.2395782-6.9170074
				c1.2697067,0.6459351,2.4461975,1.4606819,3.497467,2.4220734c-3.7244415,7.6710358-5.8575516,11.6139488-8.7925568,12.6375122
				c-3.1016235,1.0813408-7.5248184-0.9447594-16.079361-5.072464
				C58.3295555,51.7609711,57.9377556,51.5716667,57.5372772,51.3784027z M67.5403442,70.914444
				c1.0872116,0.3897705,1.8448715,1.3808365,1.9358902,2.5322647c0.0004883,0.0068359,0.0064163,0.0119858,0.0132599,0.0115051
				c0.0046539-0.0003357,0.0087204-0.0032425,0.0105515-0.0075378c2.3654251-5.189209,3.3617401-8.3426285,2.5337372-10.7179031
				c-1.07901-3.0950432-5.4024734-5.2980232-13.9213181-9.4154968l-0.6857185-0.3309784
				c-1.5184975,7.6537514,2.7778511,15.2698212,10.1135674,17.9281616L67.5403442,70.914444z M68.8573685,74.8420639
				c-8.8407784-1.9196625-15.1481209-9.7423096-15.1499443-18.7896271c0.0000038-0.40522,0.0124664-0.807045,0.0374031-1.2054558
				c0.0826874-1.307373,1.1204681-2.351532,2.4272385-2.4421501c0.006691-0.000164,0.0119858-0.0057259,0.0118179-0.012413
				c-0.0001144-0.0047226-0.0029564-0.0089417-0.0072823-0.0108223l-5.0522461-2.4398804
				c-3.3663864,12.0605469,3.6810379,24.5667152,15.7408485,27.9333c0.1618423,0.0451813,0.3241806,0.0885544,0.4869843,0.130127
				c0.5406418-1.1255798,1.0423813-2.1799393,1.505188-3.1630783H68.8573685z M54.6833115,50.0000572
				C58.0293388,39.9177551,68.91465,34.4570923,78.9963379,37.8033218c1.0598679,0.3517799,2.0870743,0.7952042,3.0699997,1.3252373
				c1.3993835,0.7577019,2.2450943,2.2462883,2.1795502,3.8363647c-0.0007324,0.0065346,0.0039749,0.0124207,0.0105133,0.0131454
				c0.0051193,0.0005684,0.010025-0.0022202,0.012146-0.0069084c0.1734161-0.3598938,0.3504181-0.7265739,0.5310059-1.1000443
				l0.2980881-0.6171799l0,0l1.5544739-3.2191696c-9.9519501-7.5780621-24.1624718-5.6531525-31.740078,4.299408
				c-1.4239426,1.8702354-2.5480881,3.9507523-3.3320656,6.1668167L54.6833115,50.0000572z"/>
			<path d="M95.5790558,56.0524368c0.0062943,4.2532425-1.1908035,8.4214783-3.4529877,12.02314
				c-1.7567978-0.8591766-3.3062057-1.6350861-4.6510239-2.3565598c-0.0057449-0.0029297-0.0080414-0.0099716-0.0051117-0.0157242
				c0.0020599-0.0040283,0.0062561-0.0065155,0.0107803-0.0063782c1.4158936-0.0681,2.6656265-0.9464798,3.2092972-2.2556915
				c3.0331268-7.3043556,1.287674-15.7208862-4.3999557-21.2164803l1.5533371-3.2163315
				C92.76474,43.3040619,95.5858459,49.5198135,95.5790558,56.0524368z M83.0512848,68.2036743
				c0.8915939-0.7403488,2.0153046-1.1432266,3.1741638-1.1380234c0.0069427,0.0000763,0.0126419-0.0054932,0.0127106-0.0124435
				c0.000061-0.0053024-0.003212-0.0100708-0.0081787-0.0119247c-3.8972855-1.6424561-6.4690399-2.251152-8.4825668-1.5495071
				c-1.9868698,0.6931229-3.6071243,2.7260895-5.6013947,6.3453903
				C76.1079407,72.0352631,79.9998322,70.738533,83.0512848,68.2036743z M88.1103363,67.8647614
				c-3.4352951,4.3804398-8.5857544,7.0751495-14.1429062,7.3995514c-1.2481155,0.0727921-2.3460541-0.8176041-2.5326385-2.0539169
				c-0.0006104-0.0066299-0.0064697-0.0115128-0.013092-0.0109177c-0.0040665,0.0003738-0.0076752,0.0027695-0.0095749,0.0063782
				c-0.7752533,1.4820633-1.6156769,3.1879959-2.5558777,5.126297c8.5797806,1.5620117,17.2950974-1.9347305,22.4163513-8.9938354
				c-1.1328583-0.5389938-2.1869507-1.0301819-3.162262-1.4735718V67.8647614z M86.3461761,47.6848755
				c-0.7115707-1.1407394-1.0098572-2.4912491-0.8449631-3.8255959c-4.0740967,8.4480476-6.0689316,12.8375702-4.9944458,15.919014
				c0.6381149,1.8306236,2.4119339,3.3489571,5.5158234,5.1353722c3.5066452-5.1731644,3.6334991-11.927578,0.3235931-17.2287865
				L86.3461761,47.6848755z"/>
		</g>
	</g>
	<g>
		<path d="M129.7604675,44.8999329h-4.3437576l-0.5315018,5.2146873h-1.8295822l-0.0590515,0.5882683
			c-0.0946045,0.9489059-0.2585907,2.589283-0.3176422,3.1620674l-0.0120392,0.115818h1.8261414
			c-0.0447235,0.5148773-0.1593933,1.5899239-0.2906952,2.8203468c-0.2935486,2.7572784-0.6960526,6.5345612-0.6736908,7.3796883
			c0.0223618,1.8823318,0.8187485,3.2583923,2.2423935,3.8747559c0.5503845,0.2318573,1.1423645,0.348732,1.7395706,0.3434372
			c1.4253616-0.0116348,2.7915421-0.5715332,3.8151321-1.5635452l0.0504456-0.0493011l-1.2481995-3.1465912l-0.099762,0.0561905
			c-0.3840332,0.2725792-0.8904572,0.3004532-1.3020935,0.0716705c-0.430603-0.2832413-0.6364288-0.915081-0.5796661-1.7779846
			c0.1198273-1.816967,0.3268127-3.654007,0.5274963-5.4302711c0.0968933-0.8588905,0.1937866-1.7183533,0.2815094-2.577816
			l3.2601166-0.0103188l0.0097504-0.0940323c0.0917358-0.9070549,0.2746277-2.7291832,0.3652191-3.6471291l0.0114746-0.115242
			h-3.3581543l0.5165863-5.2146912"/>
		<path d="M177.6863098,53.7525787c-0.6870575-0.0853996-1.3786316-0.1292419-2.0709686-0.1312981
			c-1.3303528-0.012989-2.6487427,0.2520218-3.8707428,0.7780495c-1.1358032,0.4973068-2.1663666,1.2066002-3.036499,2.0898857
			c-0.8573761,0.8809013-1.5325012,1.9223251-1.9866791,3.0645981c-0.4809265,1.1746254-0.726181,2.4323425-0.7218628,3.7015991
			c-0.0178223,0.7849693,0.0961456,1.5673714,0.3371429,2.3146477c0.1902161,0.5925217,0.4924927,1.1429901,0.8904266,1.62146
			c0.3550262,0.4144363,0.8007965,0.7414932,1.3026733,0.95578c0.075119,0.0372696,0.1496277,0.0653687,0.2247467,0.0940323
			c0.3965302,0.1451874,0.8150482,0.2212067,1.2373047,0.2247543c0.0177307,0.0074921,0.0369873,0.0106354,0.0561829,0.0091782
			c0.8564148-0.0089874,1.6934967-0.2557297,2.4178619-0.7126846c0.6076508-0.3964996,1.1485443-0.8868866,1.6025391-1.4528885
			l-0.2155914,1.9396744h4.2359772l1.7338257-13.889019l0.0091705-0.0842857l-0.075119-0.0280952
			C179.0841675,54.0164299,178.3908081,53.8505287,177.6863098,53.7525787z M170.9011993,62.4028282
			c-0.0049896-0.7650337,0.1055756-1.5264359,0.3279572-2.2584572c0.2082214-0.6675949,0.5282898-1.2949753,0.9466095-1.8553848
			c0.3927307-0.5151558,0.8912659-0.9401894,1.4620514-1.2464828c0.5716248-0.3115845,1.2141876-0.4698067,1.8651276-0.459259
			h0.1496429l-0.3749695,2.8398399c-0.1099854,0.9377174-0.3398743,1.8574448-0.684021,2.7366409
			c-0.1963196,0.490078-0.4379883,0.9607468-0.7218475,1.4058723c-0.2176208,0.3557472-0.4931946,0.6725998-0.8153229,0.9374466
			c-0.3679352,0.3418579-0.9090881,0.4201736-1.3588562,0.1966629c-0.1668549-0.0930405-0.3059692-0.2287903-0.4030609-0.3933258
			c-0.1386719-0.2307281-0.2338867-0.4849091-0.2809448-0.7499504
			C170.9328003,63.1773567,170.8950958,62.7903671,170.9011993,62.4028282z"/>
		<path d="M191.6028442,53.6224251l-2.9545135,7.7231331c-0.151947,0.3612137-0.2947235,0.7029343-0.4277344,1.0354843
			l-0.1043549,0.2947044c-0.0475922,0.1140976-0.0951691,0.2373695-0.1427612,0.3612137
			c-0.0189209-0.2092743-0.0475922-0.408802-0.0756683-0.6077576c-0.0567627-0.3417206-0.1137085-0.6836357-0.1708679-1.0257378
			l-1.2350159-6.9164124l-0.151947-0.8646278h-5.2060699l3.761795,15.6176949l-3.761795,7.5717621h5.0254822l10.0033722-22.2680664
			l0.417984-0.9213905H191.6028442z"/>
		<path d="M118.9521103,50.6289253l3.0531235-3.4195061c-2.2922821-2.3622322-6.3459167-2.8988953-9.2803726-1.6501198
			c-5.3591766,1.9505615-6.9915237,10.9333572-0.6920395,12.7681007l0,0
			c1.6226044,0.6415901,4.2812576,1.0205765,3.9917221,3.3134346c-0.5871201,3.7830162-4.7732086,2.5285072-6.8355713,0.7413521
			l-3.2836227,3.3002472l-0.065361,0.0756836c6.1928329,6.1807938,17.5086288,1.0956879,14.9589005-7.8836708
			c-0.8468552-2.2756577-3.2647018-3.0869598-5.3322296-3.8661537c-1.6048279-0.5699196-3.0840912-1.3880959-2.3668213-3.3191681
			C114.1662903,48.1789665,117.5341949,49.0625114,118.9521103,50.6289253z"/>
		<path d="M153.608139,53.6591225h-4.036438l-1.8485107,14.6934395l-0.0189056,0.1226959h4.6493683l0,0l0.1888885-2.5865555
			c0.2734833-2.8106041,0.7628784-6.5802917,2.6302948-7.7499428c0.6980896-0.406105,1.5392456-0.4853401,2.3008881-0.2167282
			c0.1318817,0.0378456,0.2643127,0.0848579,0.3961945,0.1318741l0.0659332,0.0280991l0.0567627-0.5848236l0.103775-1.0280304
			l0.2643127-2.5841255l0.0091705-0.1037788l0.0091705-0.103775c-0.1509247-0.0450478-0.3055878-0.076519-0.4621277-0.0940323
			c-1.8955231-0.2545738-3.5462189,1.3393631-4.5174866,2.5652008l0.0281067-0.2826614L153.608139,53.6591225z"/>
		<path d="M144.463089,53.7634735c-0.6884766-0.0935974-1.3824615-0.1409111-2.0772705-0.1416206
			c-1.3331604-0.0136642-2.6546021,0.2499161-3.8804932,0.7740326c-1.144989,0.4998398-2.1835327,1.2145233-3.059433,2.1053696
			c-0.8585205,0.8879776-1.5380859,1.9329224-2.0015869,3.0777855c-0.4766083,1.1821671-0.7201843,2.4453239-0.7172852,3.719944
			c-0.0163574,0.7909203,0.098526,1.5790825,0.3400116,2.3324242c0.187851,0.5955353,0.4927216,1.1475754,0.8967285,1.6237488
			c0.357666,0.4136963,0.8028259,0.7427139,1.3032532,0.9632416c0.4815674,0.2136993,1.0028687,0.3231201,1.5297241,0.3210754
			c0.478302,0.0029984,0.9537964-0.0735397,1.4070129-0.2264709c0.3609314-0.111412,0.7041779-0.2735748,1.0194397-0.4816208
			c0.6785431-0.441864,1.2784882-0.9939575,1.7751312-1.6334991l-0.2081451,2.1156921h4.0788879l1.7464294-13.9457779
			l0.0091705-0.0756836l-0.0848541-0.0280991C145.8682556,54.0206985,145.1717377,53.8528252,144.463089,53.7634735z
			 M137.2680206,63.6114655c-0.0828094-0.3845901-0.1208954-0.777462-0.1135254-1.1707993
			c-0.0036316-0.7744751,0.1110077-1.5449715,0.3399963-2.2848282c0.2118835-0.6718292,0.5341187-1.3037033,0.9534912-1.8697205
			c0.3953247-0.5218353,0.8975067-0.9532509,1.4729614-1.2654037c0.5801849-0.3117447,1.2300568-0.4709587,1.8886414-0.4626999
			h0.1508026l-0.368103,2.8799782c-0.1139069,0.9452324-0.3488159,1.8719139-0.6989136,2.7572784
			c-0.198288,0.496521-0.4416351,0.9738312-0.7270203,1.4259415c-0.2245331,0.3545303-0.5015564,0.672924-0.82164,0.9443245
			c-0.3729858,0.3461685-0.9199371,0.4285278-1.3783417,0.20755c-0.1713715-0.0970306-0.314621-0.236908-0.4156952-0.4059372
			C137.4165802,64.1320267,137.3211517,63.8768806,137.2680206,63.6114655z"/>
		<polygon points="159.1783142,68.3617325 159.1685638,68.4746857 163.3993683,68.4746857 165.8017426,44.9475212 
			165.8114929,44.8345718 161.5806885,44.8345718 		"/>
	</g>
</g>
</svg>
