<?xml version="1.0" encoding="utf-8"?>
<!-- Generator: Adobe Illustrator 25.4.1, SVG Export Plug-In . SVG Version: 6.00 Build 0)  -->
<!DOCTYPE svg PUBLIC "-//W3C//DTD SVG 1.1//EN" "http://www.w3.org/Graphics/SVG/1.1/DTD/svg11.dtd" [
	<!ENTITY st0 "fill:url(#SVGID_1_);">
	<!ENTITY st1 "fill:url(#SVGID_00000023272924232459171760000007109459693657266855_);">
	<!ENTITY st2 "fill:#FFFFFF;">
	<!ENTITY st3 "fill:url(#SVGID_00000025421519897058834980000004681981716730747535_);">
	<!ENTITY st4 "fill:url(#SVGID_00000157997033564638217550000004659617991474387350_);">
	<!ENTITY st5 "fill:url(#SVGID_00000090980943699478318150000008699178320964246167_);">
	<!ENTITY st6 "fill:url(#SVGID_00000087407479234787202860000000557913274666527895_);">
]>
<svg version="1.1" id="レイヤー_1" xmlns="http://www.w3.org/2000/svg" xmlns:xlink="http://www.w3.org/1999/xlink" x="0px"
	 y="0px" viewBox="0 0 256.2026062 122.8900375" style="enable-background:new 0 0 256.2026062 122.8900375;" xml:space="preserve">
<g>
	<g>
		<g>
			<path style="&st2;" d="M62.2062988,54.7761803l-0.6171417-0.2981071l0,0l-0.8987961-0.434124
				c-0.0061035-0.0028305-0.0087547-0.0100784-0.0059204-0.0161819c0.0019951-0.0042915,0.0062904-0.0070419,0.0110207-0.0070534
				c1.1918449-0.0128517,2.2782898-0.6855392,2.8211021-1.7467384c3.9551849-7.7755852,13.4644699-10.8724327,21.2395782-6.9170074
				c1.2697067,0.6459351,2.4461975,1.4606819,3.497467,2.4220734c-3.7244415,7.671032-5.8575516,11.613945-8.7925568,12.6375084
				c-3.1016235,1.0813408-7.5248184-0.9447556-16.0793571-5.0724602
				C62.9985771,55.1587486,62.6067772,54.9694443,62.2062988,54.7761803z M72.2093658,74.3122253
				c1.0872116,0.3897629,1.8448715,1.3808289,1.9358902,2.5322571c0.0004883,0.0068359,0.0064163,0.0119934,0.0132599,0.0115051
				c0.0046539-0.0003281,0.008728-0.0032425,0.0105515-0.0075378c2.3654251-5.189209,3.3617401-8.3426285,2.5337372-10.7179031
				c-1.07901-3.0950394-5.4024734-5.2980194-13.9213181-9.4154968l-0.6857185-0.3309746
				c-1.5184975,7.6537514,2.7778511,15.2698174,10.1135674,17.9281578L72.2093658,74.3122253z M73.5263901,78.2398453
				c-8.8407745-1.9196701-15.1481209-9.7423172-15.1499443-18.7896309c0.0000038-0.4052238,0.0124664-0.807045,0.0374031-1.2054596
				c0.0826874-1.3073692,1.1204681-2.3515282,2.4272385-2.4421501c0.006691-0.000164,0.0119858-0.005722,0.0118217-0.012413
				c-0.0001183-0.0047226-0.0029602-0.0089417-0.0072861-0.0108223l-5.0522461-2.4398804
				c-3.3663826,12.0605507,3.6810379,24.5667152,15.7408562,27.9333c0.1618347,0.0451813,0.324173,0.088562,0.4869766,0.130127
				c0.5406418-1.1255798,1.0423813-2.1799393,1.505188-3.1630707H73.5263901z M59.3523331,53.397831
				c3.3460274-10.0823021,14.2313385-15.5429649,24.3130264-12.1967316
				c1.0598679,0.3517799,2.0870743,0.7952003,3.0699997,1.3252373c1.3993835,0.7577019,2.2450943,2.2462883,2.1795502,3.8363647
				c-0.0007248,0.0065308,0.0039749,0.0124168,0.0105133,0.0131454c0.0051193,0.0005684,0.010025-0.002224,0.012146-0.0069122
				c0.1734161-0.35989,0.3504181-0.7265739,0.5310059-1.1000404l0.2980881-0.6171837l0,0l1.5544739-3.2191696
				c-9.9519501-7.5780602-24.162468-5.6531525-31.7400742,4.2994118c-1.4239464,1.8702354-2.5480919,3.9507484-3.3320694,6.1668167
				L59.3523331,53.397831z"/>
			<path style="&st2;" d="M100.2480774,59.4502144c0.0062943,4.2532425-1.1908035,8.4214745-3.4529877,12.0231438
				c-1.7567902-0.8591843-3.3062057-1.6350861-4.6510239-2.3565674c-0.0057449-0.0029297-0.0080414-0.0099716-0.0051041-0.0157242
				c0.0020523-0.0040283,0.0062485-0.0065155,0.0107727-0.0063782c1.4158936-0.0681,2.6656265-0.9464798,3.2092972-2.2556915
				c3.0331268-7.3043556,1.287674-15.7208862-4.3999557-21.2164764l1.5533371-3.2163353
				C97.4337616,46.7018394,100.2548676,52.9175911,100.2480774,59.4502144z M87.7203064,71.6014481
				c0.8915939-0.7403488,2.0153046-1.1432266,3.1741638-1.1380157c0.0069427,0.0000687,0.0126419-0.0055008,0.0127106-0.0124435
				c0.000061-0.0053101-0.003212-0.0100708-0.0081787-0.0119324c-3.8972855-1.6424561-6.4690323-2.2511444-8.4825668-1.5495071
				c-1.9868698,0.6931229-3.6071243,2.7260895-5.6013947,6.3453903
				C80.7769623,75.4330368,84.6688538,74.1363068,87.7203064,71.6014481z M92.7793579,71.2625351
				c-3.4352951,4.3804398-8.5857544,7.0751495-14.1429062,7.399559c-1.2481155,0.0727844-2.3460541-0.8176117-2.5326385-2.0539246
				c-0.0006104-0.0066299-0.0064697-0.0115128-0.013092-0.01091c-0.0040665,0.0003662-0.0076752,0.0027618-0.0095749,0.0063782
				c-0.7752533,1.4820557-1.6156769,3.1879883-2.5558777,5.1262894c8.5797806,1.5620117,17.2950974-1.9347229,22.4163513-8.9938354
				c-1.1328583-0.5389862-2.1869507-1.0301819-3.162262-1.4735718V71.2625351z M91.0151978,51.082653
				c-0.7115707-1.1407433-1.0098572-2.4912491-0.8449631-3.8255997c-4.0740967,8.4480476-6.0689316,12.8375702-4.9944458,15.9190178
				c0.6381149,1.8306198,2.4119415,3.3489532,5.5158234,5.1353683c3.5066452-5.1731644,3.6334991-11.927578,0.3235931-17.2287827
				L91.0151978,51.082653z"/>
		</g>
	</g>
	<g>
		<path style="&st2;" d="M134.4294891,48.2977104h-4.34375l-0.5315094,5.2146873h-1.8295822l-0.0590515,0.5882645
			c-0.0946045,0.9489059-0.2585907,2.589283-0.3176422,3.1620674l-0.0120392,0.1158218h1.826149
			c-0.0447235,0.5148773-0.1593933,1.5899239-0.2906952,2.8203468c-0.2935638,2.7572746-0.6960602,6.5345612-0.6737061,7.3796921
			c0.0223694,1.8823318,0.8187561,3.2583847,2.2424011,3.8747482c0.5503845,0.2318573,1.1423645,0.348732,1.739563,0.3434448
			c1.4253693-0.0116348,2.7915497-0.5715332,3.8151398-1.5635452l0.0504456-0.0493088l-1.2481995-3.1465912l-0.099762,0.0561905
			c-0.3840332,0.272583-0.8904572,0.3004532-1.3020935,0.0716705c-0.4305878-0.2832413-0.6364288-0.9150772-0.5796661-1.777977
			c0.1198273-1.8169746,0.3268127-3.6540146,0.5274963-5.430275c0.0968933-0.8588905,0.1937866-1.7183571,0.2815094-2.5778198
			l3.2601166-0.0103188l0.0097504-0.0940323c0.0917358-0.9070511,0.2746429-2.7291832,0.3652191-3.6471291l0.0114746-0.115242
			h-3.3581543l0.5165863-5.2146912"/>
		<path style="&st2;" d="M182.3553314,57.1503525c-0.6870575-0.0853958-1.3786316-0.1292419-2.0709686-0.1312981
			c-1.3303528-0.0129852-2.6487427,0.2520218-3.8707428,0.7780495c-1.1358032,0.4973106-2.1663666,1.2066002-3.036499,2.0898857
			c-0.8573761,0.8809052-1.5325012,1.9223289-1.9866791,3.0645981c-0.4809265,1.1746254-0.726181,2.4323463-0.7218628,3.7016029
			c-0.0178223,0.7849731,0.0961456,1.5673676,0.3371429,2.3146439c0.1902161,0.5925293,0.4924927,1.1429901,0.8904266,1.62146
			c0.3550262,0.4144363,0.8007965,0.7415009,1.3026733,0.9557877c0.075119,0.0372696,0.1496429,0.065361,0.2247467,0.0940323
			c0.3965302,0.1451797,0.8150635,0.2212067,1.2373047,0.2247543c0.0177307,0.0074844,0.0369873,0.0106277,0.0561829,0.0091705
			c0.8564148-0.0089874,1.6934967-0.255722,2.4178619-0.7126846c0.6076508-0.3964996,1.1485443-0.8868866,1.6025391-1.4528809
			l-0.2155914,1.9396667h4.2359772l1.7338257-13.8890152l0.0091705-0.0842857l-0.075119-0.0280991
			C183.7531891,57.4142075,183.0598297,57.2483025,182.3553314,57.1503525z M175.5702209,65.8006058
			c-0.0049896-0.7650375,0.1055756-1.5264359,0.3279572-2.2584572c0.2082214-0.6675949,0.5283051-1.2949791,0.9466095-1.8553886
			c0.3927307-0.5151558,0.8912659-0.9401855,1.4620514-1.246479c0.5716248-0.3115883,1.2141876-0.4698105,1.8651276-0.4592628
			h0.1496429l-0.3749695,2.8398438c-0.1099854,0.9377174-0.3398743,1.8574448-0.6840057,2.7366409
			c-0.1963348,0.4900742-0.4380035,0.9607468-0.7218628,1.4058685c-0.2176208,0.355751-0.4931946,0.6725998-0.8153229,0.9374466
			c-0.3679352,0.3418579-0.9090881,0.4201813-1.3588562,0.1966629c-0.1668549-0.0930405-0.3059692-0.2287903-0.4030609-0.3933258
			c-0.1386719-0.2307205-0.2338867-0.4849091-0.2809448-0.7499466
			C175.6018219,66.5751343,175.5641174,66.1881409,175.5702209,65.8006058z"/>
		<path style="&st2;" d="M196.2718658,57.0202026l-2.9545135,7.7231293
			c-0.151947,0.3612137-0.2947083,0.7029343-0.4277344,1.0354843l-0.1043549,0.2947083
			c-0.0475922,0.1140976-0.0951691,0.2373657-0.1427612,0.3612137c-0.0189056-0.2092743-0.0475922-0.4088058-0.0756683-0.6077576
			c-0.0567627-0.3417206-0.1137085-0.6836395-0.1708679-1.0257416l-1.2350159-6.9164124l-0.151947-0.864624h-5.2060699
			l3.761795,15.617691l-3.761795,7.5717621h5.0254822l10.0033722-22.2680664l0.417984-0.9213867H196.2718658z"/>
		<path style="&st2;" d="M123.6211319,54.0266991l3.0531235-3.4195023
			c-2.2922821-2.3622322-6.3459167-2.8988953-9.2803726-1.6501236c-5.359169,1.9505653-6.9915237,10.9333611-0.6920395,12.7681046
			l0,0c1.6226044,0.6415901,4.2812576,1.0205765,3.9917221,3.3134346c-0.5871201,3.7830124-4.7732086,2.5285034-6.8355713,0.7413483
			l-3.2836227,3.3002472l-0.065361,0.0756836c6.1928329,6.1808014,17.5086288,1.0956879,14.9589005-7.883667
			c-0.8468552-2.2756577-3.2647018-3.0869598-5.3322296-3.8661537c-1.6048279-0.5699196-3.0840912-1.3880997-2.3668213-3.3191681
			C118.8353119,51.5767403,122.2032166,52.4602852,123.6211319,54.0266991z"/>
		<path style="&st2;" d="M158.2771606,57.0569h-4.036438l-1.8485107,14.6934357l-0.0189056,0.1227036h4.6493683l0,0
			l0.1888885-2.5865631c0.2734833-2.8106003,0.7628784-6.5802879,2.6302948-7.749939
			c0.6980896-0.4061089,1.5392456-0.4853401,2.3008881-0.2167282c0.1318817,0.0378418,0.2643127,0.0848579,0.3961945,0.1318741
			l0.0659332,0.0280952l0.0567627-0.5848236l0.103775-1.0280304l0.2643127-2.5841255l0.0091705-0.103775l0.0091705-0.1037788
			c-0.1509247-0.0450478-0.3055878-0.0765152-0.4621277-0.0940323c-1.8955231-0.25457-3.5462189,1.3393631-4.5174866,2.5652046
			l0.0281067-0.2826653L158.2771606,57.0569z"/>
		<path style="&st2;" d="M149.1321106,57.1612511c-0.6884766-0.0936012-1.3824615-0.1409149-2.0772705-0.1416206
			c-1.3331604-0.0136681-2.6546021,0.2499161-3.8804932,0.7740326c-1.144989,0.499836-2.1835327,1.2145195-3.059433,2.1053658
			c-0.8585205,0.8879814-1.5380859,1.9329224-2.0015869,3.0777893c-0.4766083,1.1821632-0.7201691,2.4453239-0.7172852,3.719944
			c-0.0163574,0.7909241,0.098526,1.5790787,0.3400116,2.3324203c0.187851,0.5955429,0.4927216,1.1475754,0.8967285,1.6237488
			c0.357666,0.4137039,0.8028259,0.7427139,1.3032532,0.9632416c0.4815674,0.2136993,1.0028687,0.3231201,1.5297241,0.3210754
			c0.478302,0.0029984,0.9537964-0.0735321,1.4070129-0.2264709c0.3609314-0.1114044,0.7041779-0.2735748,1.0194397-0.4816208
			c0.6785431-0.441864,1.2784882-0.9939575,1.7751312-1.6334915l-0.2081299,2.1156921h4.0788727l1.7464447-13.9457817
			l0.0091553-0.0756874l-0.0848541-0.0280952C150.5372772,57.4184761,149.8407593,57.2505989,149.1321106,57.1612511z
			 M141.9370422,67.0092392c-0.0828094-0.3845901-0.1208954-0.7774582-0.1135254-1.1707916
			c-0.0036316-0.7744827,0.1110077-1.5449753,0.3399963-2.2848358c0.2118835-0.6718292,0.5341187-1.3037033,0.9534912-1.8697205
			c0.3953247-0.5218315,0.8975067-0.9532509,1.4729614-1.2653999c0.5801849-0.3117447,1.2300568-0.4709587,1.8886414-0.4626999
			h0.1508026l-0.368103,2.8799782c-0.1139069,0.9452324-0.3488159,1.8719101-0.6989136,2.7572784
			c-0.198288,0.496521-0.4416351,0.9738312-0.7270203,1.4259415c-0.2245331,0.3545303-0.5015564,0.6729279-0.82164,0.9443207
			c-0.3729858,0.3461685-0.9199371,0.4285278-1.3783417,0.20755c-0.1713715-0.0970306-0.314621-0.236908-0.4156952-0.4059372
			C142.0856018,67.5298004,141.9901733,67.2746582,141.9370422,67.0092392z"/>
		<polygon style="&st2;" points="163.8473358,71.7595139 163.8375854,71.8724594 168.0683899,71.8724594 170.4707642,48.3452988 
			170.4805145,48.2323456 166.2497101,48.2323456 		"/>
	</g>
</g>
</svg>
