<?xml version="1.0" encoding="utf-8"?>
<!-- Generator: Adobe Illustrator 25.4.1, SVG Export Plug-In . SVG Version: 6.00 Build 0)  -->
<!DOCTYPE svg PUBLIC "-//W3C//DTD SVG 1.1//EN" "http://www.w3.org/Graphics/SVG/1.1/DTD/svg11.dtd" [
	<!ENTITY st0 "fill:url(#SVGID_1_);">
	<!ENTITY st1 "fill:url(#SVGID_00000127018277977750252130000001347090965469730989_);">
	<!ENTITY st2 "fill:#FFFFFF;">
	<!ENTITY st3 "fill:url(#SVGID_00000166666873521810852900000007072339784562755484_);">
	<!ENTITY st4 "fill:url(#SVGID_00000110433668580348456080000017080050098426112163_);">
	<!ENTITY st5 "fill:url(#SVGID_00000139973568180553109870000004194014321874231471_);">
	<!ENTITY st6 "fill:url(#SVGID_00000150790550847036954550000000013588118114839443_);">
]>
<svg version="1.1" id="レイヤー_1" xmlns="http://www.w3.org/2000/svg" xmlns:xlink="http://www.w3.org/1999/xlink" x="0px"
	 y="0px" viewBox="0 0 183.266571 91.0684433" style="enable-background:new 0 0 183.266571 91.0684433;" xml:space="preserve">
<g>
	<path style="&st2;" d="M62.8605232,22.9629326h-7.576004l-0.927002,9.0949974H51.166523l-0.1029968,1.026001
		c-0.1649933,1.6549988-0.451004,4.5159988-0.5540009,5.5149994l-0.0209961,0.2020035h3.1849976
		c-0.0780029,0.8980026-0.2779999,2.7730026-0.5070038,4.9189987c-0.5119934,4.8089981-1.2140045,11.3970032-1.1750031,12.8710022
		c0.0390015,3.2829971,1.4279938,5.6829987,3.9109955,6.7580032c0.9599304,0.4043808,1.9924011,0.608223,3.0339966,0.598999
		c2.4859924-0.0202942,4.8687744-0.9968185,6.6540031-2.7269974l0.0879974-0.0859985l-2.1769981-5.487999l-0.173996,0.0979996
		c-0.6697998,0.4754105-1.5530548,0.524025-2.2709961,0.125c-0.7510071-0.4940033-1.1100006-1.5960007-1.0110016-3.1009979
		c0.2089996-3.1689987,0.5700073-6.3730011,0.9199982-9.4710007c0.1690063-1.4980011,0.3379974-2.9970016,0.4909973-4.4960022
		l5.6860008-0.0179977l0.0169983-0.1640015c0.1600037-1.5820007,0.4790039-4.7600021,0.6369934-6.3610001l0.0200043-0.2009964
		h-5.8569908l0.901001-9.0950012"/>
	<path style="&st2;" d="M146.4485168,38.4029312c-1.1983032-0.148941-2.40448-0.2254105-3.6119995-0.2289963
		c-2.320282-0.0226517-4.6196899,0.4395523-6.7510071,1.3570023c-1.980957,0.867363-3.7783813,2.1044464-5.29599,3.6449966
		c-1.4953613,1.5363922-2.6728516,3.3527527-3.4649963,5.3450012c-0.8387756,2.0486755-1.2665405,4.2422791-1.2590027,6.4560013
		c-0.0310669,1.3690796,0.1676941,2.7336731,0.5880127,4.0370026c0.3317566,1.033432,0.8589783,1.9934998,1.553009,2.8280029
		c0.6192017,0.7228317,1.3966675,1.2932587,2.2720032,1.6669998c0.131012,0.0650024,0.2609863,0.1139984,0.3919983,0.1640015
		c0.6915894,0.2532196,1.4215393,0.3858109,2.1579895,0.3919983c0.0309143,0.0130539,0.0645142,0.0185394,0.0979919,0.0159988
		c1.4936829-0.0156784,2.9536438-0.4460144,4.2170105-1.2429962c1.0598145-0.6915436,2.0032043-1.5468369,2.7950134-2.5339966
		l-0.3760071,3.3830032h7.3880005l3.0239868-24.223999l0.0159912-0.1470032l-0.131012-0.0490036
		C148.8865356,38.863121,147.6772461,38.5737686,146.4485168,38.4029312z M134.6145325,53.4899368
		c-0.0086975-1.3343048,0.1841431-2.6622772,0.571991-3.939003c0.3631592-1.16436,0.9214172-2.2585831,1.651001-3.2360001
		c0.684967-0.8984909,1.5544739-1.6397934,2.5499878-2.1740036c0.9969788-0.5434418,2.1176758-0.819397,3.2529907-0.8010025
		h0.2609863l-0.6539917,4.9530029c-0.1918335,1.6354828-0.5927734,3.2395859-1.1929932,4.7730026
		c-0.3424072,0.8547516-0.763916,1.6756516-1.2590027,2.4520035c-0.3795471,0.6204605-0.8601685,1.1730804-1.4219971,1.6350021
		c-0.6417236,0.5962448-1.5855713,0.7328415-2.3699951,0.3430023c-0.2910156-0.1622696-0.5336609-0.3990326-0.7030029-0.685997
		c-0.2418518-0.4024124-0.4079285-0.8457336-0.4899902-1.3079987
		C134.6696472,54.8407974,134.6038818,54.1658478,134.6145325,53.4899368z"/>
	<path style="&st2;" d="M170.72052,38.1759338l-5.1530151,13.4700012c-0.2650146,0.6299973-0.5140076,1.2259979-0.7460022,1.8059998
		l-0.1820068,0.5139999c-0.0830078,0.1989975-0.1659851,0.4140015-0.2489929,0.6299973
		c-0.0329895-0.3649979-0.0830078-0.7129974-0.1319885-1.0599976c-0.098999-0.5960007-0.1983032-1.192337-0.2980042-1.7890015
		l-2.1539917-12.0629959l-0.2650146-1.5080032h-9.0799866l6.5610046,27.2389984l-6.5610046,13.2060013h8.7650146
		l17.446991-38.8379974l0.7290039-1.6070023H170.72052z"/>
	<path style="&st2;" d="M44.0095253,32.9549332l5.3249969-5.9639969
		c-3.9980011-4.1199989-11.0679932-5.0559998-16.1860046-2.8779984
		c-9.3470001,3.4020004-12.1940002,19.0690002-1.2070007,22.2689972l0,0
		c2.8300018,1.1190033,7.4669952,1.7799988,6.9620056,5.7789993c-1.0240021,6.5979996-8.3249969,4.409996-11.9219971,1.2929993
		l-5.727005,5.7559967l-0.1139984,0.1320038c10.8009949,10.7799988,30.5370026,1.9110031,26.0899963-13.75
		c-1.477005-3.9690018-5.6940002-5.3840027-9.3000031-6.7430038c-2.798996-0.9940033-5.3789978-2.4209976-4.128006-5.7890015
		C35.6625252,28.6819305,41.5365334,30.2229309,44.0095253,32.9549332z"/>
	<path style="&st2;" d="M104.4535217,38.2399368h-7.0400085l-3.223999,25.6269989l-0.0329895,0.2139969h8.1090088l0,0
		l0.3294525-4.5112495c0.4769897-4.9020004,1.3305511-11.476757,4.5875397-13.516758
		c1.2175293-0.7082977,2.6846008-0.846489,4.0130005-0.3779984c0.230011,0.0660019,0.4609985,0.1480026,0.6910095,0.2300034
		l0.1149902,0.0490036l0.098999-1.0199966l0.1809998-1.7929993l0.4609985-4.5070038l0.0159912-0.1809998l0.0159912-0.1809998
		c-0.2632446-0.0785675-0.5329895-0.1334534-0.8059998-0.1640015c-3.3059998-0.4440002-6.1849976,2.3359985-7.8789978,4.473999
		l0.0490112-0.4929962L104.4535217,38.2399368z"/>
	<path style="&st2;" d="M88.5035095,38.421936c-1.2007751-0.1632462-2.4111633-0.2457657-3.6229858-0.2470016
		c-2.3251648-0.0238342-4.6299133,0.4358826-6.7680054,1.3499985c-1.9969788,0.8717728-3.8083191,2.1182632-5.3359985,3.6719971
		c-1.497345,1.5487366-2.6825867,3.3712311-3.4909973,5.3680038c-0.8312531,2.0618286-1.2560577,4.2649155-1.2510071,6.487999
		c-0.0285492,1.3794556,0.1718292,2.754097,0.5930023,4.0680008c0.327652,1.0386887,0.859375,2.001503,1.5640106,2.8320007
		c0.6238098,0.7215424,1.4002075,1.2953796,2.2730103,1.6800003c0.8399048,0.3727188,1.749115,0.5635605,2.6679993,0.5599976
		c0.8342285,0.0052261,1.6635437-0.1282578,2.45401-0.3949966c0.6294861-0.1943054,1.2281494-0.4771423,1.7780151-0.8399963
		c1.1834412-0.7706604,2.2298279-1.7335739,3.0960083-2.848999l-0.3630066,3.6900024h7.1140137l3.04599-24.322998
		l0.0159912-0.1320038l-0.1480103-0.0490036C90.9542847,38.8705673,89.7394714,38.577774,88.5035095,38.421936z
		 M75.9545288,55.5979309c-0.1444397-0.6707687-0.2108765-1.3559799-0.197998-2.0419998
		c-0.0063477-1.3507767,0.1936035-2.694603,0.5929871-3.9850006c0.3695374-1.1717453,0.9315491-2.2738037,1.6629944-3.2610016
		c0.6894836-0.9101334,1.5653381-1.6625748,2.5690002-2.2070007c1.0119019-0.5437164,2.1453552-0.8214035,3.2940063-0.8069992
		h0.2630005l-0.6419983,5.0230026c-0.1986694,1.6485901-0.6083679,3.2648239-1.2189941,4.8089981
		c-0.3458252,0.8659897-0.7702637,1.6984711-1.2680054,2.4869995c-0.3916016,0.6183395-0.8747559,1.1736603-1.4330139,1.6470032
		c-0.6505432,0.6037598-1.6044922,0.747406-2.4039917,0.3619995c-0.2988892-0.1692352-0.5487366-0.4132004-0.7250061-0.7080002
		C76.213623,56.5058517,76.0471802,56.0608444,75.9545288,55.5979309z"/>
	<polygon style="&st2;" points="114.1685181,63.8829346 114.1515198,64.0799332 121.5305176,64.0799332 125.72052,23.0459328 
		125.7375183,22.8489323 118.3585205,22.8489323 	"/>
</g>
</svg>
