<svg xmlns="http://www.w3.org/2000/svg" width="158.262" height="55.772" viewBox="0 0 158.262 55.772"><path d="M41.72.114H34.144l-.927,9.095H30.026l-.103,1.026c-.165,1.655-.451,4.516-.554,5.515l-.021.202h3.185c-.078.898-.278,2.773-.507,4.919-.512,4.809-1.214,11.397-1.175,12.871.039,3.283,1.428,5.683,3.911,6.758a7.6408,7.6408,0,0,0,3.034.599,9.6744,9.6744,0,0,0,6.654-2.727l.088-.086-2.177-5.488-.174.098a2.1333,2.1333,0,0,1-2.271.125c-.751-.494-1.11-1.596-1.011-3.101.209-3.169.57-6.373.92-9.471.169-1.498.338-2.997.491-4.496l5.686-.018.017-.164c.16-1.582.479-4.76.637-6.361l.02-.201H40.819L41.72.114" fill="#fff"/><path d="M125.308,15.554a30.0177,30.0177,0,0,0-3.612-.229,16.6646,16.6646,0,0,0-6.751,1.357,17.0132,17.0132,0,0,0-5.296,3.645,16.2968,16.2968,0,0,0-3.465,5.345,16.8876,16.8876,0,0,0-1.259,6.456,12.247,12.247,0,0,0,.588,4.037,8.4745,8.4745,0,0,0,1.553,2.828,6.1948,6.1948,0,0,0,2.272,1.667c.131.065.261.114.392.164a6.4349,6.4349,0,0,0,2.158.392.2108.2108,0,0,0,.098.016,8.0621,8.0621,0,0,0,4.217-1.243,11.9632,11.9632,0,0,0,2.795-2.534l-.376,3.383h7.388l3.024-24.224.016-.147-.131-.049A19.2266,19.2266,0,0,0,125.308,15.554ZM113.474,30.641a13.2557,13.2557,0,0,1,.572-3.939,10.7713,10.7713,0,0,1,1.651-3.236,7.9092,7.9092,0,0,1,2.55-2.174,6.5747,6.5747,0,0,1,3.253-.801h.261l-.654,4.953a19.2493,19.2493,0,0,1-1.193,4.773,14.7819,14.7819,0,0,1-1.259,2.452,6.5245,6.5245,0,0,1-1.422,1.635,2.1053,2.1053,0,0,1-2.37.343,1.8784,1.8784,0,0,1-.703-.686,3.8427,3.8427,0,0,1-.49-1.308A8.9773,8.9773,0,0,1,113.474,30.641Z" fill="#fff"/><path d="M149.58,15.327l-5.153,13.47c-.265.63-.514,1.226-.746,1.806l-.182.514c-.083.199-.166.414-.249.63-.033-.365-.083-.713-.132-1.06q-.1485-.894-.298-1.789l-2.154-12.063-.265-1.508h-9.08l6.561,27.239-6.561,13.206h8.765l17.447-38.838.729-1.607Z" fill="#fff"/><path d="M22.869,10.106l5.325-5.964C24.196.022,17.126-.914,12.008,1.264,2.661,4.666-.186,20.333,10.801,23.533h0c2.83,1.119,7.467,1.78,6.962,5.779-1.024,6.598-8.325,4.41-11.922,1.293L.114,36.361,0,36.493c10.801,10.78,30.537,1.911,26.09-13.75-1.477-3.969-5.694-5.384-9.3-6.743-2.799-.994-5.379-2.421-4.128-5.789C14.522,5.833,20.396,7.374,22.869,10.106Z" fill="#fff"/><path d="M83.313,15.391h-7.04L73.049,41.018l-.033.214h8.109l.016-.148c.23-1.086.362-2.55.526-4.244.477-4.902,1.118-11.596,4.375-13.636a4.8034,4.8034,0,0,1,4.013-.378c.23.066.461.148.691.23l.115.049.099-1.02.181-1.793.461-4.507.016-.181.016-.181a4.6051,4.6051,0,0,0-.806-.164c-3.306-.444-6.185,2.336-7.879,4.474l.049-.493Z" fill="#fff"/><path d="M67.363,15.573a27.1021,27.1021,0,0,0-3.623-.247,16.78,16.78,0,0,0-6.768,1.35,17.05,17.05,0,0,0-5.336,3.672,16.785,16.785,0,0,0-3.491,5.368,17.2465,17.2465,0,0,0-1.251,6.488,12.4784,12.4784,0,0,0,.593,4.068,8.1832,8.1832,0,0,0,1.564,2.832,6.4352,6.4352,0,0,0,2.273,1.68,6.5149,6.5149,0,0,0,2.668.56,7.5293,7.5293,0,0,0,2.454-.395,6.9467,6.9467,0,0,0,1.778-.84A12.683,12.683,0,0,0,61.32,37.26l-.3631,3.69h7.1141l3.046-24.323.0159-.132-.148-.049A16.7978,16.7978,0,0,0,67.363,15.573ZM54.814,32.749a8.9075,8.9075,0,0,1-.198-2.042,13.268,13.268,0,0,1,.593-3.985,11.0693,11.0693,0,0,1,1.663-3.261,8.0208,8.0208,0,0,1,2.569-2.207,6.78,6.78,0,0,1,3.294-.807h.263l-.642,5.023a19.387,19.387,0,0,1-1.219,4.809,15.265,15.265,0,0,1-1.268,2.487,7.2345,7.2345,0,0,1-1.433,1.647,2.157,2.157,0,0,1-2.404.362,1.9831,1.9831,0,0,1-.725-.708A4.4068,4.4068,0,0,1,54.814,32.749Z" fill="#fff"/><polygon points="93.028 41.034 93.011 41.231 100.39 41.231 104.58 0.197 104.597 0 97.218 0 93.028 41.034" fill="#fff"/></svg>