<svg xmlns="http://www.w3.org/2000/svg" viewBox="0 0 90.1 121.6">
  <path fill="#fff" d="M17.9 31.7l-1.1-.5-1.6-.8c2.1 0 4-1.2 5-3.1 7-13.7 23.8-19.2 37.5-12.2 2.2 1.1 4.3 2.6 6.2 4.3-6.6 13.5-10.3 20.5-15.5 22.3-5.5 1.9-13.3-1.7-28.4-9-.7-.3-1.4-.6-2.1-1zm17.7 34.5c1.9.7 3.3 2.4 3.4 4.5 4.2-9.2 5.9-14.7 4.5-18.9-1.9-5.5-9.5-9.4-24.6-16.6l-1.2-.6C15 48.1 22.6 61.5 35.6 66.2zm2.3 6.9C22.3 69.8 11.1 55.9 11.1 40c0-.7 0-1.4.1-2.1.1-2.3 2-4.2 4.3-4.3l-8.9-4.3C.7 50.6 13.1 72.7 34.4 78.6c.3.1.6.2.9.2.9-2.1 1.8-3.9 2.6-5.7zm-25-43.8C18.8 11.5 38 1.9 55.8 7.8c1.9.6 3.7 1.4 5.4 2.3 2.5 1.3 4 4 3.8 6.8.3-.6.6-1.3.9-1.9l.5-1.1 2.7-5.7c-17.6-13.4-42.6-10-56 7.6-2.5 3.3-4.5 7-5.9 10.9l5.7 2.6zM85 40c0 7.5-2.1 14.9-6.1 21.2-3.1-1.5-5.8-2.9-8.2-4.2 2.5-.1 4.7-1.7 5.7-4 5.4-12.9 2.3-27.7-7.8-37.4l2.7-5.7C80.1 17.5 85.1 28.4 85 40zM62.9 61.4c1.6-1.3 3.6-2 5.6-2-6.9-2.9-11.4-4-15-2.7-3.5 1.2-6.4 4.8-9.9 11.2 7.1.3 13.9-2 19.3-6.5zm9-.6c-6.1 7.7-15.2 12.5-25 13.1-2.2.1-4.1-1.4-4.5-3.6-1.4 2.6-2.9 5.6-4.5 9 15.1 2.8 30.5-3.4 39.6-15.9-2.1-.9-3.9-1.8-5.6-2.6zm-3.2-35.6c-1.3-2-1.8-4.4-1.5-6.8-7.2 14.9-10.7 22.7-8.8 28.1 1.1 3.2 4.3 5.9 9.7 9.1 6.3-9.1 6.5-21 .6-30.4zM23.8 89.9h-4.3l-.5 5.2h-1.8l-.2.6c-.1.9-.3 2.6-.3 3.1v.1h1.8c0 .5-.2 1.6-.3 2.8-.3 2.7-.7 6.5-.7 7.3 0 1.9.8 3.2 2.2 3.8.5.2 1.1.3 1.7.3 1.4 0 2.8-.6 3.8-1.6h.1l-1.2-3.1-.1.1c-.4.3-.9.3-1.3.1-.4-.3-.6-.9-.6-1.8.1-1.8.3-3.6.5-5.4.1-.9.2-1.7.3-2.6h3.2v-.1l.4-3.6V95h-3.3l.6-5.1m47.6 8.8c-.7-.1-1.4-.1-2.1-.1-1.3 0-2.6.3-3.8.8-1.1.5-2.2 1.2-3 2.1-.9.9-1.5 1.9-2 3-.5 1.2-.7 2.4-.7 3.7 0 .8.1 1.6.3 2.3.2.6.5 1.1.9 1.6.4.4.8.7 1.3.9.1 0 .1.1.2.1.4.1.8.2 1.2.2h.1c.9 0 1.7-.3 2.4-.7.6-.4 1.1-.9 1.6-1.4l-.2 1.9h4.2l1.7-13.8v-.1h-.1c-.6-.3-1.3-.4-2-.5zm-6.8 8.6c0-.8.1-1.5.3-2.2.2-.7.5-1.3.9-1.8s.9-.9 1.5-1.2c.6-.3 1.2-.5 1.9-.5h.1l-.4 2.8c-.1.9-.3 1.8-.7 2.7-.2.5-.4 1-.7 1.4-.2.4-.5.7-.8.9-.4.3-.9.4-1.3.2-.2-.1-.3-.2-.4-.4-.1-.2-.2-.5-.3-.7 0-.5-.1-.8-.1-1.2zm20.6-8.7l-2.9 7.7c-.2.4-.3.7-.4 1l-.1.3c0 .1-.1.2-.1.4 0-.2 0-.4-.1-.6-.1-.3-.1-.7-.2-1l-1.2-6.9-.2-.9h-5.2l3.7 15.5-3.7 7.5h5l9.9-22.1.4-.9h-4.9zm-72.2-3l3-3.4c-2.3-2.3-6.3-2.9-9.2-1.6-5.3 1.9-6.9 10.9-.7 12.7 1.6.6 4.3 1 4 3.3-.6 3.8-4.7 2.5-6.8.7L0 110.6c6.2 6.1 17.4 1.1 14.9-7.8-.8-2.3-3.2-3.1-5.3-3.8-1.6-.6-3.1-1.4-2.4-3.3 1.1-2.6 4.4-1.7 5.8-.1zm34.4 3h-4l-1.8 14.6v.1h4.6l.2-2.6c.3-2.8.8-6.5 2.6-7.7.7-.4 1.5-.5 2.3-.2.1 0 .3.1.4.1h.1l.1-.6.1-1 .3-2.6v-.2c-.1 0-.3-.1-.5-.1-1.9-.3-3.5 1.3-4.5 2.5v-.3l.1-2zm-9 .1c-.7-.1-1.4-.1-2.1-.1-1.3 0-2.6.2-3.9.8-1.1.5-2.2 1.2-3 2.1-.9.9-1.5 1.9-2 3.1-.5 1.2-.7 2.4-.7 3.7 0 .8.1 1.6.3 2.3.2.6.5 1.1.9 1.6.4.4.8.7 1.3 1 .5.2 1 .3 1.5.3s.9-.1 1.4-.2c.4-.1.7-.3 1-.5.7-.4 1.3-1 1.8-1.6l-.2 2.1h4.1l1.7-13.9v-.1h-.1c-.6-.4-1.3-.5-2-.6zm-7.2 9.8c-.1-.4-.1-.8-.1-1.2 0-.8.1-1.5.3-2.3.2-.7.5-1.3.9-1.9.4-.5.9-.9 1.5-1.3.6-.3 1.2-.5 1.9-.5h.1l-.4 2.9c-.1.9-.3 1.9-.7 2.7-.2.5-.4 1-.7 1.4-.2.4-.5.7-.8.9-.4.3-.9.4-1.4.2-.2-.1-.3-.2-.4-.4 0 0-.1-.3-.2-.5zm21.8 4.7v.1h4.2l2.4-23.4v-.1h-4.2z"/>
</svg>
