<svg xmlns="http://www.w3.org/2000/svg" viewBox="0 0 158.3 55.8">
  <path fill="#fff" d="M41.7.1h-7.6l-.9 9.1H30l-.1 1c-.2 1.7-.5 4.5-.6 5.5v.2h3.2c-.1.9-.3 2.8-.5 4.9-.5 4.8-1.2 11.4-1.2 12.9 0 3.3 1.4 5.7 3.9 6.8 1 .4 2 .6 3 .6 2.5 0 4.9-1 6.7-2.7l.1-.1-2.2-5.5-.2.1c-.7.5-1.6.5-2.3.1-.8-.5-1.1-1.6-1-3.1.2-3.2.6-6.4.9-9.5.2-1.5.3-3 .5-4.5h5.7v-.2c.2-1.6.5-4.8.6-6.4v-.2h-5.9l1.1-9m83.6 15.5c-1.2-.1-2.4-.2-3.6-.2-2.3 0-4.6.4-6.8 1.4-2 .9-3.8 2.1-5.3 3.6s-2.7 3.4-3.5 5.3c-.8 2-1.3 4.2-1.3 6.5 0 1.4.2 2.7.6 4 .3 1 .9 2 1.6 2.8.6.7 1.4 1.3 2.3 1.7.1.1.3.1.4.2.7.3 1.4.4 2.2.4h.1c1.5 0 3-.4 4.2-1.2 1.1-.7 2-1.5 2.8-2.5l-.4 3.4h7.4l3-24.2v-.1h-.1c-1.2-.7-2.4-1-3.6-1.1zm-11.8 15c0-1.3.2-2.7.6-3.9.4-1.2.9-2.3 1.7-3.2.7-.9 1.6-1.6 2.5-2.2 1-.5 2.1-.8 3.3-.8h.3l-.7 5c-.2 1.6-.6 3.2-1.2 4.8-.3.9-.8 1.7-1.3 2.5-.4.6-.9 1.2-1.4 1.6-.6.6-1.6.7-2.4.3-.3-.2-.5-.4-.7-.7-.2-.4-.4-.8-.5-1.3-.2-.7-.2-1.4-.2-2.1zm36.1-15.3l-5.2 13.5c-.3.6-.5 1.2-.7 1.8l-.2.5c-.1.2-.2.4-.2.6 0-.4-.1-.7-.1-1.1l-.3-1.8-2.2-12.1-.3-1.5h-9.1l6.6 27.2-6.6 13.2h8.8l17.4-38.8.7-1.6h-8.6zM22.9 10.1l5.3-6C24.2 0 17.1-.9 12 1.3c-9.3 3.4-12.2 19-1.2 22.2 2.8 1.1 7.5 1.8 7 5.8-1 6.6-8.3 4.4-11.9 1.3L.2 36.4l-.2.1c10.8 10.8 30.5 1.9 26.1-13.8-1.5-4-5.7-5.4-9.3-6.7-2.8-1-5.4-2.4-4.1-5.8 1.8-4.4 7.7-2.8 10.2-.1zm60.4 5.3h-7L73 41v.2h8.1l.3-4.5c.5-4.9 1.3-11.5 4.6-13.5 1.2-.7 2.7-.8 4-.4.2.1.5.1.7.2h.1l.1-1 .2-1.8.5-4.5v-.4c-.3-.1-.5-.1-.8-.2-3.3-.4-6.2 2.3-7.9 4.5v-.5l.4-3.7zm-15.9.2c-1.2-.2-2.4-.2-3.6-.2-2.3 0-4.6.4-6.8 1.3-2 .9-3.8 2.1-5.3 3.7-1.5 1.5-2.7 3.4-3.5 5.4-.8 2.1-1.3 4.3-1.3 6.5 0 1.4.2 2.8.6 4.1.3 1 .9 2 1.6 2.8.6.7 1.4 1.3 2.3 1.7.8.4 1.7.6 2.7.6.8 0 1.7-.1 2.5-.4.6-.2 1.2-.5 1.8-.8 1.2-.8 2.2-1.7 3.1-2.8L61 41h7.1l3-24.3v-.1H71c-1.2-.6-2.4-.9-3.6-1zM54.8 32.7c-.1-.7-.2-1.4-.2-2 0-1.4.2-2.7.6-4 .4-1.2.9-2.3 1.7-3.3.7-.9 1.6-1.7 2.6-2.2 1-.5 2.1-.8 3.3-.8h.2l-.6 5c-.2 1.6-.6 3.3-1.2 4.8-.3.9-.8 1.7-1.3 2.5-.4.6-.9 1.2-1.4 1.6-.7.6-1.6.7-2.4.4-.3-.2-.5-.4-.7-.7-.3-.3-.5-.8-.6-1.3zM93 41v.2h7.4l4.2-41V0h-7.4z"/>
</svg>
