<svg xmlns="http://www.w3.org/2000/svg" viewBox="0 0 79 79">
  <defs>
    <linearGradient id="a" gradientUnits="userSpaceOnUse" x1="0" y1="42.244" x2="63.43" y2="42.244" gradientTransform="matrix(1 0 0 -1 0 81.138)">
      <stop offset="0" stop-color="#a50066"/>
      <stop offset=".995" stop-color="#e6007a"/>
    </linearGradient>
    <linearGradient id="b" gradientUnits="userSpaceOnUse" x1="32.392" y1="36.751" x2="79" y2="36.751" gradientTransform="matrix(1 0 0 -1 0 81.138)">
      <stop offset="0" stop-color="#0297fb"/>
      <stop offset=".994" stop-color="#0ae2ff"/>
    </linearGradient>
  </defs>
  <path fill="url(#a)" d="M12.7 31.3l-1.1-.5-1.6-.7c2.1 0 4-1.2 4.9-3 6.9-13.6 23.5-19 37-12.1 2.2 1.1 4.3 2.5 6.1 4.2-6.5 13.4-10.2 20.3-15.3 22-5.4 1.9-13.1-1.6-28-8.8-.7-.4-1.4-.7-2-1.1zm17.4 34.1c1.9.7 3.2 2.4 3.4 4.4 4.1-9.1 5.9-14.6 4.4-18.7-1.9-5.4-9.4-9.2-24.3-16.4l-1.2-.6c-2.6 13.4 4.9 26.7 17.7 31.3zm2.3 6.9C17 68.9 6 55.3 6 39.5c0-.7 0-1.4.1-2.1.1-2.3 2-4.1 4.2-4.3l-8.8-4.3c-5.9 21 6.4 42.8 27.5 48.7.3.1.6.2.8.2.9-1.9 1.8-3.7 2.6-5.4zM7.7 28.9C13.5 11.4 32.5 1.8 50.1 7.7c1.8.6 3.6 1.4 5.4 2.3 2.4 1.3 3.9 3.9 3.8 6.7.3-.6.6-1.3.9-1.9l.5-1.1 2.7-5.6C46.1-5.1 21.3-1.8 8.1 15.6c-2.5 3.3-4.4 6.9-5.8 10.8l5.4 2.5z"/>
  <path fill="url(#b)" d="M79 39.5c0 7.4-2.1 14.7-6 21-3.1-1.5-5.8-2.9-8.1-4.1 2.5-.1 4.6-1.7 5.6-3.9 5.3-12.7 2.2-27.4-7.7-37l2.7-5.6C74.1 17.3 79 28.1 79 39.5zM57.2 60.7c1.6-1.3 3.5-2 5.5-2-6.8-2.9-11.3-3.9-14.8-2.7-3.5 1.2-6.3 4.8-9.8 11.1 6.9.3 13.7-2 19.1-6.4zm8.8-.6C60 67.7 51 72.4 41.3 73c-2.2.1-4.1-1.4-4.4-3.6-1.4 2.6-2.9 5.6-4.5 9 15 2.7 30.2-3.4 39.1-15.7-2-1-3.8-1.8-5.5-2.6zm-3.1-35.2c-1.2-2-1.8-4.3-1.5-6.7C54.3 33 50.8 40.6 52.7 46c1.1 3.2 4.2 5.8 9.6 9 6.1-9.1 6.4-20.8.6-30.1z"/>
</svg>
